<?xml version="1.0" standalone="yes"?>

<svg version="1.1" viewBox="0.0 0.0 960.3569553805775 596.0839895013123" fill="none" stroke="none" stroke-linecap="square" stroke-miterlimit="10" xmlns="http://www.w3.org/2000/svg" xmlns:xlink="http://www.w3.org/1999/xlink"><clipPath id="p.0"><path d="m0 0l960.35693 0l0 596.084l-960.35693 0l0 -596.084z" clip-rule="nonzero"></path></clipPath><g clip-path="url(#p.0)"><path fill="#000000" fill-opacity="0.0" d="m0 0l960.35693 0l0 596.084l-960.35693 0z" fill-rule="nonzero"></path><path fill="#000000" fill-opacity="0.0" d="m0 8.724584l0 0c0 -4.8184543 3.9061294 -8.724584 8.724584 -8.724584l942.5508 0c2.3139038 0 4.533081 0.9191946 6.1692505 2.5553715c1.6361694 1.6361768 2.555359 3.8553088 2.555359 6.1692123l0 34.89729c0 4.8184547 -3.906128 8.7245865 -8.724609 8.7245865l-942.5508 0c-4.8184543 0 -8.724584 -3.9061317 -8.724584 -8.7245865z" fill-rule="nonzero"></path><path stroke="#999999" stroke-width="1.0" stroke-linejoin="round" stroke-linecap="butt" stroke-dasharray="4.0,3.0" d="m0 8.724584l0 0c0 -4.8184543 3.9061294 -8.724584 8.724584 -8.724584l942.5508 0c2.3139038 0 4.533081 0.9191946 6.1692505 2.5553715c1.6361694 1.6361768 2.555359 3.8553088 2.555359 6.1692123l0 34.89729c0 4.8184547 -3.906128 8.7245865 -8.724609 8.7245865l-942.5508 0c-4.8184543 0 -8.724584 -3.9061317 -8.724584 -8.7245865z" fill-rule="nonzero"></path><path fill="#999999" d="m861.7475 33.65323l0 -11.53125l-4.765625 11.53125l-0.71875 0l-4.75 -11.53125l0 11.53125l-1.734375 0l0 -14.0l2.5 0l4.34375 10.53125l4.375 -10.53125l2.484375 0l0 14.0l-1.734375 0zm9.645142 0.25q-2.203125 0 -3.609375 -1.5q-1.40625 -1.5 -1.40625 -3.828125q0 -2.359375 1.40625 -3.828125q1.40625 -1.484375 3.609375 -1.484375q2.21875 0 3.625 1.484375q1.40625 1.46875 1.40625 3.828125q0 2.328125 -1.40625 3.828125q-1.40625 1.5 -3.625 1.5zm0 -1.40625q1.46875 0 2.40625 -1.09375q0.953125 -1.109375 0.953125 -2.828125q0 -1.703125 -0.953125 -2.796875q-0.9375 -1.109375 -2.40625 -1.109375q-1.46875 0 -2.421875 1.09375q-0.953125 1.09375 -0.953125 2.8125q0 1.734375 0.9375 2.828125q0.953125 1.09375 2.4375 1.09375zm14.621582 1.15625l0 -6.640625q0 -1.34375 -0.625 -1.84375q-0.609375 -0.5 -1.640625 -0.5q-0.890625 0 -1.75 0.46875q-0.84375 0.46875 -1.25 1.109375l0 7.40625l-1.578125 0l0 -10.140625l1.578125 0l0 1.46875q0.640625 -0.75 1.59375 -1.234375q0.96875 -0.484375 2.015625 -0.484375q3.234375 0 3.234375 3.265625l0 7.125l-1.578125 0zm5.689392 -11.59375q-0.421875 0 -0.75 -0.296875q-0.3125 -0.3125 -0.3125 -0.75q0 -0.4375 0.3125 -0.75q0.328125 -0.328125 0.75 -0.328125q0.4375 0 0.75 0.328125q0.3125 0.3125 0.3125 0.75q0 0.4375 -0.3125 0.75q-0.3125 0.296875 -0.75 0.296875zm-0.78125 11.59375l0 -10.140625l1.578125 0l0 10.140625l-1.578125 0zm7.361328 0.25q-2.25 0 -2.25 -2.375l0 -6.625l-1.6875 0l0 -1.390625l1.6875 0l0 -2.78125l1.578125 0l0 2.78125l2.046875 0l0 1.390625l-2.046875 0l0 6.296875q0 0.5625 0.25 0.9375q0.25 0.359375 0.78125 0.359375q0.640625 0 1.0625 -0.421875l0.46875 1.171875q-0.65625 0.65625 -1.890625 0.65625zm8.129883 0q-2.203125 0 -3.609375 -1.5q-1.40625 -1.5 -1.40625 -3.828125q0 -2.359375 1.40625 -3.828125q1.40625 -1.484375 3.609375 -1.484375q2.21875 0 3.625 1.484375q1.40625 1.46875 1.40625 3.828125q0 2.328125 -1.40625 3.828125q-1.40625 1.5 -3.625 1.5zm0 -1.40625q1.46875 0 2.40625 -1.09375q0.953125 -1.109375 0.953125 -2.828125q0 -1.703125 -0.953125 -2.796875q-0.9375 -1.109375 -2.40625 -1.109375q-1.46875 0 -2.421875 1.09375q-0.953125 1.09375 -0.953125 2.8125q0 1.734375 0.9375 2.828125q0.953125 1.09375 2.4375 1.09375zm7.777832 1.15625l0 -10.140625l1.578125 0l0 1.640625q1.40625 -1.859375 3.375 -1.859375l0 1.625l-0.625 -0.0625q-0.71875 0 -1.578125 0.515625q-0.859375 0.515625 -1.171875 1.09375l0 7.1875l-1.578125 0zm7.81958 -11.59375q-0.421875 0 -0.75 -0.296875q-0.3125 -0.3125 -0.3125 -0.75q0 -0.4375 0.3125 -0.75q0.328125 -0.328125 0.75 -0.328125q0.4375 0 0.75 0.328125q0.3125 0.3125 0.3125 0.75q0 0.4375 -0.3125 0.75q-0.3125 0.296875 -0.75 0.296875zm-0.78125 11.59375l0 -10.140625l1.578125 0l0 10.140625l-1.578125 0zm11.642578 0l0 -6.640625q0 -1.34375 -0.625 -1.84375q-0.609375 -0.5 -1.640625 -0.5q-0.890625 0 -1.75 0.46875q-0.84375 0.46875 -1.25 1.109375l0 7.40625l-1.578125 0l0 -10.140625l1.578125 0l0 1.46875q0.640625 -0.75 1.59375 -1.234375q0.96875 -0.484375 2.015625 -0.484375q3.234375 0 3.234375 3.265625l0 7.125l-1.578125 0zm8.986267 4.109375q-1.3125 0 -2.265625 -0.3125q-0.9375 -0.3125 -1.84375 -1.1875l0.8125 -1.1875q0.625 0.765625 1.40625 1.078125q0.796875 0.3125 1.890625 0.3125q1.546875 0 2.390625 -0.8125q0.859375 -0.796875 0.859375 -2.234375l0 -1.453125q-0.546875 0.78125 -1.4375 1.296875q-0.890625 0.515625 -1.96875 0.515625q-2.0625 0 -3.296875 -1.4375q-1.21875 -1.453125 -1.21875 -3.8125q0 -2.4375 1.25 -3.84375q1.25 -1.421875 3.265625 -1.421875q2.109375 0 3.40625 1.78125l0 -1.53125l1.578125 0l0 9.84375q0 2.140625 -1.265625 3.265625q-1.265625 1.140625 -3.5625 1.140625zm0.21875 -5.375q0.859375 0 1.703125 -0.453125q0.859375 -0.46875 1.328125 -1.203125l0 -4.421875q-0.46875 -0.734375 -1.328125 -1.1875q-0.859375 -0.453125 -1.703125 -0.453125q-1.484375 0 -2.375 1.078125q-0.875 1.0625 -0.875 2.78125q0 1.75 0.90625 2.8125q0.90625 1.046875 2.34375 1.046875z" fill-rule="nonzero"></path><path fill="#000000" fill-opacity="0.0" d="m0 69.07104l0 0c0 -4.818451 3.9061294 -8.724579 8.724584 -8.724579l942.5508 0c2.3139038 0 4.533081 0.91919327 6.1692505 2.5553703c1.6361694 1.6361732 2.555359 3.8553047 2.555359 6.1692085l0 34.897293c0 4.818451 -3.906128 8.7245865 -8.724609 8.7245865l-942.5508 0c-4.8184543 0 -8.724584 -3.9061356 -8.724584 -8.7245865z" fill-rule="nonzero"></path><path stroke="#999999" stroke-width="1.0" stroke-linejoin="round" stroke-linecap="butt" stroke-dasharray="4.0,3.0" d="m0 69.07104l0 0c0 -4.818451 3.9061294 -8.724579 8.724584 -8.724579l942.5508 0c2.3139038 0 4.533081 0.91919327 6.1692505 2.5553703c1.6361694 1.6361732 2.555359 3.8553047 2.555359 6.1692085l0 34.897293c0 4.818451 -3.906128 8.7245865 -8.724609 8.7245865l-942.5508 0c-4.8184543 0 -8.724584 -3.9061356 -8.724584 -8.7245865z" fill-rule="nonzero"></path><path fill="#999999" d="m860.6811 93.99969l0 -11.53125l-4.765625 11.53125l-0.71875 0l-4.75 -11.53125l0 11.53125l-1.734375 0l0 -14.0l2.5 0l4.34375 10.53125l4.375 -10.53125l2.484375 0l0 14.0l-1.734375 0zm9.801392 0.25q-2.296875 0 -3.734375 -1.484375q-1.4375 -1.5 -1.4375 -3.84375q0 -2.25 1.421875 -3.78125q1.4375 -1.53125 3.578125 -1.53125q2.1875 0 3.53125 1.515625q1.34375 1.5 1.34375 3.921875l0 0.390625l-8.21875 0q0.09375 1.5625 1.125 2.546875q1.046875 0.96875 2.53125 0.96875q1.84375 0 3.125 -1.28125l0.765625 1.03125q-1.5625 1.546875 -4.03125 1.546875zm3.140625 -5.96875q0 -1.40625 -0.921875 -2.390625q-0.921875 -0.984375 -2.40625 -0.984375q-1.40625 0 -2.34375 0.984375q-0.9375 0.984375 -0.984375 2.390625l6.65625 0zm7.4921875 5.96875q-2.578125 0 -4.09375 -1.59375l0.828125 -1.140625q0.5 0.59375 1.390625 1.03125q0.890625 0.421875 1.9375 0.421875q1.1875 0 1.796875 -0.484375q0.609375 -0.5 0.609375 -1.25q0 -0.671875 -0.671875 -1.0625q-0.65625 -0.390625 -2.46875 -0.8125q-1.53125 -0.3125 -2.34375 -1.0q-0.796875 -0.6875 -0.796875 -1.828125q0 -1.28125 1.03125 -2.09375q1.03125 -0.828125 2.75 -0.828125q2.28125 0 3.75 1.46875l-0.734375 1.09375q-0.453125 -0.546875 -1.25 -0.90625q-0.78125 -0.375 -1.765625 -0.375q-1.046875 0 -1.65625 0.46875q-0.59375 0.453125 -0.59375 1.125q0 0.609375 0.671875 0.96875q0.671875 0.359375 2.484375 0.734375q1.53125 0.359375 2.328125 1.078125q0.796875 0.71875 0.796875 1.921875q0 1.40625 -1.09375 2.234375q-1.09375 0.828125 -2.90625 0.828125zm9.917603 0q-2.578125 0 -4.09375 -1.59375l0.828125 -1.140625q0.5 0.59375 1.390625 1.03125q0.890625 0.421875 1.9375 0.421875q1.1875 0 1.796875 -0.484375q0.609375 -0.5 0.609375 -1.25q0 -0.671875 -0.671875 -1.0625q-0.65625 -0.390625 -2.46875 -0.8125q-1.53125 -0.3125 -2.34375 -1.0q-0.796875 -0.6875 -0.796875 -1.828125q0 -1.28125 1.03125 -2.09375q1.03125 -0.828125 2.75 -0.828125q2.28125 0 3.75 1.46875l-0.734375 1.09375q-0.453125 -0.546875 -1.25 -0.90625q-0.78125 -0.375 -1.765625 -0.375q-1.046875 0 -1.65625 0.46875q-0.59375 0.453125 -0.59375 1.125q0 0.609375 0.671875 0.96875q0.671875 0.359375 2.484375 0.734375q1.53125 0.359375 2.328125 1.078125q0.796875 0.71875 0.796875 1.921875q0 1.40625 -1.09375 2.234375q-1.09375 0.828125 -2.90625 0.828125zm13.058228 -0.25l0 -1.15625q-1.28125 1.40625 -3.359375 1.40625q-1.53125 0 -2.546875 -0.96875q-1.0 -0.96875 -1.0 -2.390625q0 -1.46875 0.984375 -2.40625q1.0 -0.9375 2.5625 -0.9375q2.171875 0 3.359375 1.390625l0 -1.828125q0 -1.03125 -0.734375 -1.578125q-0.71875 -0.5625 -1.828125 -0.5625q-1.796875 0 -3.109375 1.40625l-0.734375 -1.09375q1.609375 -1.671875 4.046875 -1.671875q1.875 0 2.890625 0.90625q1.03125 0.890625 1.03125 2.515625l0 6.96875l-1.5625 0zm-2.796875 -0.875q1.875 0 2.796875 -1.265625l0 -1.90625q-0.921875 -1.265625 -2.796875 -1.265625q-1.109375 0 -1.8125 0.625q-0.6875 0.609375 -0.6875 1.59375q0 0.96875 0.6875 1.59375q0.703125 0.625 1.8125 0.625zm11.77124 4.984375q-1.3125 0 -2.265625 -0.3125q-0.9375 -0.3125 -1.84375 -1.1875l0.8125 -1.1875q0.625 0.765625 1.40625 1.078125q0.796875 0.3125 1.890625 0.3125q1.546875 0 2.390625 -0.8125q0.859375 -0.796875 0.859375 -2.234375l0 -1.453125q-0.546875 0.78125 -1.4375 1.296875q-0.890625 0.515625 -1.96875 0.515625q-2.0625 0 -3.296875 -1.4375q-1.21875 -1.453125 -1.21875 -3.8125q0 -2.4375 1.25 -3.84375q1.25 -1.421875 3.265625 -1.421875q2.109375 0 3.40625 1.78125l0 -1.53125l1.578125 0l0 9.84375q0 2.140625 -1.265625 3.265625q-1.265625 1.140625 -3.5625 1.140625zm0.21875 -5.375q0.859375 0 1.703125 -0.453125q0.859375 -0.46875 1.328125 -1.203125l0 -4.421875q-0.46875 -0.734375 -1.328125 -1.1875q-0.859375 -0.453125 -1.703125 -0.453125q-1.484375 0 -2.375 1.078125q-0.875 1.0625 -0.875 2.78125q0 1.75 0.90625 2.8125q0.90625 1.046875 2.34375 1.046875zm8.726746 -10.328125q-0.421875 0 -0.75 -0.296875q-0.3125 -0.3125 -0.3125 -0.75q0 -0.4375 0.3125 -0.75q0.328125 -0.328125 0.75 -0.328125q0.4375 0 0.75 0.328125q0.3125 0.3125 0.3125 0.75q0 0.4375 -0.3125 0.75q-0.3125 0.296875 -0.75 0.296875zm-0.78125 11.59375l0 -10.140625l1.578125 0l0 10.140625l-1.578125 0zm11.642578 0l0 -6.640625q0 -1.34375 -0.625 -1.84375q-0.609375 -0.5 -1.640625 -0.5q-0.890625 0 -1.75 0.46875q-0.84375 0.46875 -1.25 1.109375l0 7.40625l-1.578125 0l0 -10.140625l1.578125 0l0 1.46875q0.640625 -0.75 1.59375 -1.234375q0.96875 -0.484375 2.015625 -0.484375q3.234375 0 3.234375 3.265625l0 7.125l-1.578125 0zm8.986206 4.109375q-1.3125 0 -2.265625 -0.3125q-0.9375 -0.3125 -1.84375 -1.1875l0.8125 -1.1875q0.625 0.765625 1.40625 1.078125q0.796875 0.3125 1.890625 0.3125q1.546875 0 2.390625 -0.8125q0.859375 -0.796875 0.859375 -2.234375l0 -1.453125q-0.546875 0.78125 -1.4375 1.296875q-0.890625 0.515625 -1.96875 0.515625q-2.0625 0 -3.296875 -1.4375q-1.21875 -1.453125 -1.21875 -3.8125q0 -2.4375 1.25 -3.84375q1.25 -1.421875 3.265625 -1.421875q2.109375 0 3.40625 1.78125l0 -1.53125l1.578125 0l0 9.84375q0 2.140625 -1.265625 3.265625q-1.265625 1.140625 -3.5625 1.140625zm0.21875 -5.375q0.859375 0 1.703125 -0.453125q0.859375 -0.46875 1.328125 -1.203125l0 -4.421875q-0.46875 -0.734375 -1.328125 -1.1875q-0.859375 -0.453125 -1.703125 -0.453125q-1.484375 0 -2.375 1.078125q-0.875 1.0625 -0.875 2.78125q0 1.75 0.90625 2.8125q0.90625 1.046875 2.34375 1.046875z" fill-rule="nonzero"></path><path fill="#000000" fill-opacity="0.0" d="m0 129.4175l0 0c0 -4.818451 3.9061294 -8.724579 8.724584 -8.724579l942.5508 0c2.3139038 0 4.533081 0.91918945 6.1692505 2.5553665c1.6361694 1.6361771 2.555359 3.8553085 2.555359 6.1692123l0 34.897293c0 4.818451 -3.906128 8.724579 -8.724609 8.724579l-942.5508 0c-4.8184543 0 -8.724584 -3.906128 -8.724584 -8.724579z" fill-rule="nonzero"></path><path stroke="#999999" stroke-width="1.0" stroke-linejoin="round" stroke-linecap="butt" stroke-dasharray="4.0,3.0" d="m0 129.4175l0 0c0 -4.818451 3.9061294 -8.724579 8.724584 -8.724579l942.5508 0c2.3139038 0 4.533081 0.91918945 6.1692505 2.5553665c1.6361694 1.6361771 2.555359 3.8553085 2.555359 6.1692123l0 34.897293c0 4.818451 -3.906128 8.724579 -8.724609 8.724579l-942.5508 0c-4.8184543 0 -8.724584 -3.906128 -8.724584 -8.724579z" fill-rule="nonzero"></path><path fill="#999999" d="m829.2802 154.59615q-3.078125 0 -5.015625 -2.046875q-1.921875 -2.0625 -1.921875 -5.203125q0 -3.140625 1.9375 -5.1875q1.9375 -2.046875 5.0 -2.046875q3.09375 0 5.015625 2.0625q1.9375 2.046875 1.9375 5.171875q0 3.15625 -1.9375 5.203125q-1.9375 2.046875 -5.015625 2.046875zm0 -1.546875q2.296875 0 3.71875 -1.609375q1.4375 -1.609375 1.4375 -4.09375q0 -2.515625 -1.4375 -4.09375q-1.421875 -1.59375 -3.71875 -1.59375q-2.265625 0 -3.703125 1.5625q-1.4375 1.546875 -1.4375 4.125q0 2.53125 1.421875 4.125q1.421875 1.578125 3.71875 1.578125zm9.878601 1.296875l0 -10.140625l1.578125 0l0 1.640625q1.40625 -1.859375 3.375 -1.859375l0 1.625l-0.625 -0.0625q-0.71875 0 -1.578125 0.515625q-0.859375 0.515625 -1.171875 1.09375l0 7.1875l-1.578125 0zm11.507019 0.25q-2.21875 0 -3.640625 -1.5q-1.421875 -1.515625 -1.421875 -3.828125q0 -2.296875 1.421875 -3.796875q1.421875 -1.515625 3.640625 -1.515625q2.359375 0 3.71875 1.765625l-1.046875 0.953125q-0.96875 -1.3125 -2.59375 -1.3125q-1.546875 0 -2.53125 1.078125q-0.96875 1.078125 -0.96875 2.828125q0 1.765625 0.96875 2.84375q0.96875 1.078125 2.53125 1.078125q1.609375 0 2.59375 -1.328125l1.046875 0.96875q-1.359375 1.765625 -3.71875 1.765625zm12.94812 -0.25l0 -6.671875q0 -1.140625 -0.53125 -1.71875q-0.53125 -0.59375 -1.75 -0.59375q-0.859375 0 -1.671875 0.4375q-0.8125 0.4375 -1.328125 1.140625l0 7.40625l-1.578125 0l0 -14.0l1.578125 0l0 5.328125q0.671875 -0.78125 1.625 -1.25q0.96875 -0.46875 2.0 -0.46875q3.234375 0 3.234375 3.234375l0 7.15625l-1.578125 0zm9.491943 0.25q-2.296875 0 -3.734375 -1.484375q-1.4375 -1.5 -1.4375 -3.84375q0 -2.25 1.421875 -3.78125q1.4375 -1.53125 3.578125 -1.53125q2.1875 0 3.53125 1.515625q1.34375 1.5 1.34375 3.921875l0 0.390625l-8.21875 0q0.09375 1.5625 1.125 2.546875q1.046875 0.96875 2.53125 0.96875q1.84375 0 3.125 -1.28125l0.765625 1.03125q-1.5625 1.546875 -4.03125 1.546875zm3.140625 -5.96875q0 -1.40625 -0.921875 -2.390625q-0.921875 -0.984375 -2.40625 -0.984375q-1.40625 0 -2.34375 0.984375q-0.9375 0.984375 -0.984375 2.390625l6.65625 0zm7.4921265 5.96875q-2.578125 0 -4.09375 -1.59375l0.828125 -1.140625q0.5 0.59375 1.390625 1.03125q0.890625 0.421875 1.9375 0.421875q1.1875 0 1.796875 -0.484375q0.609375 -0.5 0.609375 -1.25q0 -0.671875 -0.671875 -1.0625q-0.65625 -0.390625 -2.46875 -0.8125q-1.53125 -0.3125 -2.34375 -1.0q-0.796875 -0.6875 -0.796875 -1.828125q0 -1.28125 1.03125 -2.09375q1.03125 -0.828125 2.75 -0.828125q2.28125 0 3.75 1.46875l-0.734375 1.09375q-0.453125 -0.546875 -1.25 -0.90625q-0.78125 -0.375 -1.765625 -0.375q-1.046875 0 -1.65625 0.46875q-0.59375 0.453125 -0.59375 1.125q0 0.609375 0.671875 0.96875q0.671875 0.359375 2.484375 0.734375q1.53125 0.359375 2.328125 1.078125q0.796875 0.71875 0.796875 1.921875q0 1.40625 -1.09375 2.234375q-1.09375 0.828125 -2.90625 0.828125zm9.277039 0q-2.25 0 -2.25 -2.375l0 -6.625l-1.6875 0l0 -1.390625l1.6875 0l0 -2.78125l1.578125 0l0 2.78125l2.046875 0l0 1.390625l-2.046875 0l0 6.296875q0 0.5625 0.25 0.9375q0.25 0.359375 0.78125 0.359375q0.640625 0 1.0625 -0.421875l0.46875 1.171875q-0.65625 0.65625 -1.890625 0.65625zm3.7079468 -0.25l0 -10.140625l1.578125 0l0 1.640625q1.40625 -1.859375 3.375 -1.859375l0 1.625l-0.625 -0.0625q-0.71875 0 -1.578125 0.515625q-0.859375 0.515625 -1.171875 1.09375l0 7.1875l-1.578125 0zm13.38208 0l0 -1.15625q-1.28125 1.40625 -3.359375 1.40625q-1.53125 0 -2.546875 -0.96875q-1.0 -0.96875 -1.0 -2.390625q0 -1.46875 0.984375 -2.40625q1.0 -0.9375 2.5625 -0.9375q2.171875 0 3.359375 1.390625l0 -1.828125q0 -1.03125 -0.734375 -1.578125q-0.71875 -0.5625 -1.828125 -0.5625q-1.796875 0 -3.109375 1.40625l-0.734375 -1.09375q1.609375 -1.671875 4.046875 -1.671875q1.875 0 2.890625 0.90625q1.03125 0.890625 1.03125 2.515625l0 6.96875l-1.5625 0zm-2.796875 -0.875q1.875 0 2.796875 -1.265625l0 -1.90625q-0.921875 -1.265625 -2.796875 -1.265625q-1.109375 0 -1.8125 0.625q-0.6875 0.609375 -0.6875 1.59375q0 0.96875 0.6875 1.59375q0.703125 0.625 1.8125 0.625zm10.255554 1.125q-2.25 0 -2.25 -2.375l0 -6.625l-1.6875 0l0 -1.390625l1.6875 0l0 -2.78125l1.578125 0l0 2.78125l2.046875 0l0 1.390625l-2.046875 0l0 6.296875q0 0.5625 0.25 0.9375q0.25 0.359375 0.78125 0.359375q0.640625 0 1.0625 -0.421875l0.46875 1.171875q-0.65625 0.65625 -1.890625 0.65625zm4.489258 -11.84375q-0.421875 0 -0.75 -0.296875q-0.3125 -0.3125 -0.3125 -0.75q0 -0.4375 0.3125 -0.75q0.328125 -0.328125 0.75 -0.328125q0.4375 0 0.75 0.328125q0.3125 0.3125 0.3125 0.75q0 0.4375 -0.3125 0.75q-0.3125 0.296875 -0.75 0.296875zm-0.78125 11.59375l0 -10.140625l1.578125 0l0 10.140625l-1.578125 0zm9.220703 0.25q-2.203125 0 -3.609375 -1.5q-1.40625 -1.5 -1.40625 -3.828125q0 -2.359375 1.40625 -3.828125q1.40625 -1.484375 3.609375 -1.484375q2.21875 0 3.625 1.484375q1.40625 1.46875 1.40625 3.828125q0 2.328125 -1.40625 3.828125q-1.40625 1.5 -3.625 1.5zm0 -1.40625q1.46875 0 2.40625 -1.09375q0.953125 -1.109375 0.953125 -2.828125q0 -1.703125 -0.953125 -2.796875q-0.9375 -1.109375 -2.40625 -1.109375q-1.46875 0 -2.421875 1.09375q-0.953125 1.09375 -0.953125 2.8125q0 1.734375 0.9375 2.828125q0.953125 1.09375 2.4375 1.09375zm14.621643 1.15625l0 -6.640625q0 -1.34375 -0.625 -1.84375q-0.609375 -0.5 -1.640625 -0.5q-0.890625 0 -1.75 0.46875q-0.84375 0.46875 -1.25 1.109375l0 7.40625l-1.578125 0l0 -10.140625l1.578125 0l0 1.46875q0.640625 -0.75 1.59375 -1.234375q0.96875 -0.484375 2.015625 -0.484375q3.234375 0 3.234375 3.265625l0 7.125l-1.578125 0z" fill-rule="nonzero"></path><path fill="#000000" fill-opacity="0.0" d="m0 193.85706l0 0c0 -7.07901 5.738676 -12.817688 12.817692 -12.817688l934.3646 0c3.399475 0 6.659668 1.3504333 9.063477 3.7542114c2.4038086 2.4037933 3.7542114 5.6640167 3.7542114 9.063477l0 87.057526c0 7.0790405 -5.7386475 12.817688 -12.817688 12.817688l-934.3646 0c-7.0790157 0 -12.817692 -5.7386475 -12.817692 -12.817688z" fill-rule="nonzero"></path><path stroke="#999999" stroke-width="1.0" stroke-linejoin="round" stroke-linecap="butt" stroke-dasharray="4.0,3.0" d="m0 193.85706l0 0c0 -7.07901 5.738676 -12.817688 12.817692 -12.817688l934.3646 0c3.399475 0 6.659668 1.3504333 9.063477 3.7542114c2.4038086 2.4037933 3.7542114 5.6640167 3.7542114 9.063477l0 87.057526c0 7.0790405 -5.7386475 12.817688 -12.817688 12.817688l-934.3646 0c-7.0790157 0 -12.817692 -5.7386475 -12.817692 -12.817688z" fill-rule="nonzero"></path><path fill="#999999" d="m845.9352 244.86583l0 -14.0l5.625 0q2.0 0 3.1875 1.203125q1.203125 1.1875 1.203125 3.015625q0 1.84375 -1.21875 3.03125q-1.21875 1.1875 -3.171875 1.1875l-3.890625 0l0 5.5625l-1.734375 0zm5.421875 -7.125q1.25 0 2.015625 -0.734375q0.765625 -0.734375 0.765625 -1.921875q0 -1.203125 -0.765625 -1.9375q-0.765625 -0.734375 -2.015625 -0.734375l-3.6875 0l0 5.328125l3.6875 0zm7.0352783 7.125l0 -10.140625l1.578125 0l0 1.640625q1.40625 -1.859375 3.375 -1.859375l0 1.625l-0.625 -0.0625q-0.71875 0 -1.578125 0.515625q-0.859375 0.515625 -1.171875 1.09375l0 7.1875l-1.578125 0zm11.460205 0.25q-2.203125 0 -3.609375 -1.5q-1.40625 -1.5 -1.40625 -3.828125q0 -2.359375 1.40625 -3.828125q1.40625 -1.484375 3.609375 -1.484375q2.21875 0 3.625 1.484375q1.40625 1.46875 1.40625 3.828125q0 2.328125 -1.40625 3.828125q-1.40625 1.5 -3.625 1.5zm0 -1.40625q1.46875 0 2.40625 -1.09375q0.953125 -1.109375 0.953125 -2.828125q0 -1.703125 -0.953125 -2.796875q-0.9375 -1.109375 -2.40625 -1.109375q-1.46875 0 -2.421875 1.09375q-0.953125 1.09375 -0.953125 2.8125q0 1.734375 0.9375 2.828125q0.953125 1.09375 2.4375 1.09375zm12.246582 1.40625q-2.21875 0 -3.640625 -1.5q-1.421875 -1.515625 -1.421875 -3.828125q0 -2.296875 1.421875 -3.796875q1.421875 -1.515625 3.640625 -1.515625q2.359375 0 3.71875 1.765625l-1.046875 0.953125q-0.96875 -1.3125 -2.59375 -1.3125q-1.546875 0 -2.53125 1.078125q-0.96875 1.078125 -0.96875 2.828125q0 1.765625 0.96875 2.84375q0.96875 1.078125 2.53125 1.078125q1.609375 0 2.59375 -1.328125l1.046875 0.96875q-1.359375 1.765625 -3.71875 1.765625zm10.66687 0q-2.296875 0 -3.734375 -1.484375q-1.4375 -1.5 -1.4375 -3.84375q0 -2.25 1.421875 -3.78125q1.4375 -1.53125 3.578125 -1.53125q2.1875 0 3.53125 1.515625q1.34375 1.5 1.34375 3.921875l0 0.390625l-8.21875 0q0.09375 1.5625 1.125 2.546875q1.046875 0.96875 2.53125 0.96875q1.84375 0 3.125 -1.28125l0.765625 1.03125q-1.5625 1.546875 -4.03125 1.546875zm3.140625 -5.96875q0 -1.40625 -0.921875 -2.390625q-0.921875 -0.984375 -2.40625 -0.984375q-1.40625 0 -2.34375 0.984375q-0.9375 0.984375 -0.984375 2.390625l6.65625 0zm7.4921265 5.96875q-2.578125 0 -4.09375 -1.59375l0.828125 -1.140625q0.5 0.59375 1.390625 1.03125q0.890625 0.421875 1.9375 0.421875q1.1875 0 1.796875 -0.484375q0.609375 -0.5 0.609375 -1.25q0 -0.671875 -0.671875 -1.0625q-0.65625 -0.390625 -2.46875 -0.8125q-1.53125 -0.3125 -2.34375 -1.0q-0.796875 -0.6875 -0.796875 -1.828125q0 -1.28125 1.03125 -2.09375q1.03125 -0.828125 2.75 -0.828125q2.28125 0 3.75 1.46875l-0.734375 1.09375q-0.453125 -0.546875 -1.25 -0.90625q-0.78125 -0.375 -1.765625 -0.375q-1.046875 0 -1.65625 0.46875q-0.59375 0.453125 -0.59375 1.125q0 0.609375 0.671875 0.96875q0.671875 0.359375 2.484375 0.734375q1.53125 0.359375 2.328125 1.078125q0.796875 0.71875 0.796875 1.921875q0 1.40625 -1.09375 2.234375q-1.09375 0.828125 -2.90625 0.828125zm9.917664 0q-2.578125 0 -4.09375 -1.59375l0.828125 -1.140625q0.5 0.59375 1.390625 1.03125q0.890625 0.421875 1.9375 0.421875q1.1875 0 1.796875 -0.484375q0.609375 -0.5 0.609375 -1.25q0 -0.671875 -0.671875 -1.0625q-0.65625 -0.390625 -2.46875 -0.8125q-1.53125 -0.3125 -2.34375 -1.0q-0.796875 -0.6875 -0.796875 -1.828125q0 -1.28125 1.03125 -2.09375q1.03125 -0.828125 2.75 -0.828125q2.28125 0 3.75 1.46875l-0.734375 1.09375q-0.453125 -0.546875 -1.25 -0.90625q-0.78125 -0.375 -1.765625 -0.375q-1.046875 0 -1.65625 0.46875q-0.59375 0.453125 -0.59375 1.125q0 0.609375 0.671875 0.96875q0.671875 0.359375 2.484375 0.734375q1.53125 0.359375 2.328125 1.078125q0.796875 0.71875 0.796875 1.921875q0 1.40625 -1.09375 2.234375q-1.09375 0.828125 -2.90625 0.828125zm7.4957275 -11.84375q-0.421875 0 -0.75 -0.296875q-0.3125 -0.3125 -0.3125 -0.75q0 -0.4375 0.3125 -0.75q0.328125 -0.328125 0.75 -0.328125q0.4375 0 0.75 0.328125q0.3125 0.3125 0.3125 0.75q0 0.4375 -0.3125 0.75q-0.3125 0.296875 -0.75 0.296875zm-0.78125 11.59375l0 -10.140625l1.578125 0l0 10.140625l-1.578125 0zm11.642578 0l0 -6.640625q0 -1.34375 -0.625 -1.84375q-0.609375 -0.5 -1.640625 -0.5q-0.890625 0 -1.75 0.46875q-0.84375 0.46875 -1.25 1.109375l0 7.40625l-1.578125 0l0 -10.140625l1.578125 0l0 1.46875q0.640625 -0.75 1.59375 -1.234375q0.96875 -0.484375 2.015625 -0.484375q3.234375 0 3.234375 3.265625l0 7.125l-1.578125 0zm8.986206 4.109375q-1.3125 0 -2.265625 -0.3125q-0.9375 -0.3125 -1.84375 -1.1875l0.8125 -1.1875q0.625 0.765625 1.40625 1.078125q0.796875 0.3125 1.890625 0.3125q1.546875 0 2.390625 -0.8125q0.859375 -0.796875 0.859375 -2.234375l0 -1.453125q-0.546875 0.78125 -1.4375 1.296875q-0.890625 0.515625 -1.96875 0.515625q-2.0625 0 -3.296875 -1.4375q-1.21875 -1.453125 -1.21875 -3.8125q0 -2.4375 1.25 -3.84375q1.25 -1.421875 3.265625 -1.421875q2.109375 0 3.40625 1.78125l0 -1.53125l1.578125 0l0 9.84375q0 2.140625 -1.265625 3.265625q-1.265625 1.140625 -3.5625 1.140625zm0.21875 -5.375q0.859375 0 1.703125 -0.453125q0.859375 -0.46875 1.328125 -1.203125l0 -4.421875q-0.46875 -0.734375 -1.328125 -1.1875q-0.859375 -0.453125 -1.703125 -0.453125q-1.484375 0 -2.375 1.078125q-0.875 1.0625 -0.875 2.78125q0 1.75 0.90625 2.8125q0.90625 1.046875 2.34375 1.046875z" fill-rule="nonzero"></path><path fill="#000000" fill-opacity="0.0" d="m0 310.45688l0 0c0 -4.818451 3.9061294 -8.724609 8.724584 -8.724609l942.5508 0c2.3139038 0 4.533081 0.91922 6.1692505 2.5553894c1.6361694 1.6361694 2.555359 3.8553162 2.555359 6.16922l0 34.897278c0 4.818451 -3.906128 8.724579 -8.724609 8.724579l-942.5508 0c-4.8184543 0 -8.724584 -3.906128 -8.724584 -8.724579z" fill-rule="nonzero"></path><path stroke="#999999" stroke-width="1.0" stroke-linejoin="round" stroke-linecap="butt" stroke-dasharray="4.0,3.0" d="m0 310.45688l0 0c0 -4.818451 3.9061294 -8.724609 8.724584 -8.724609l942.5508 0c2.3139038 0 4.533081 0.91922 6.1692505 2.5553894c1.6361694 1.6361694 2.555359 3.8553162 2.555359 6.16922l0 34.897278c0 4.818451 -3.906128 8.724579 -8.724609 8.724579l-942.5508 0c-4.8184543 0 -8.724584 -3.906128 -8.724584 -8.724579z" fill-rule="nonzero"></path><path fill="#999999" d="m879.2427 335.6355q-3.375 0 -5.375 -2.21875l1.03125 -1.328125q0.859375 0.96875 2.015625 1.484375q1.15625 0.515625 2.390625 0.515625q1.515625 0 2.40625 -0.671875q0.890625 -0.671875 0.890625 -1.75q0 -1.65625 -2.59375 -2.375q-3.09375 -0.8125 -3.953125 -1.296875q-0.84375 -0.484375 -1.296875 -1.203125q-0.453125 -0.734375 -0.453125 -1.734375q0 -1.6875 1.359375 -2.78125q1.359375 -1.109375 3.453125 -1.109375q3.15625 0 4.984375 1.953125l-1.0625 1.28125q-1.5 -1.671875 -4.046875 -1.671875q-1.265625 0 -2.078125 0.609375q-0.796875 0.609375 -0.796875 1.609375q0 0.734375 0.671875 1.25q0.671875 0.515625 1.953125 0.828125q2.984375 0.828125 3.84375 1.359375q0.875 0.515625 1.34375 1.28125q0.484375 0.765625 0.484375 1.859375q0 1.921875 -1.40625 3.015625q-1.40625 1.09375 -3.765625 1.09375zm12.482727 0q-2.296875 0 -3.734375 -1.484375q-1.4375 -1.5 -1.4375 -3.84375q0 -2.25 1.421875 -3.78125q1.4375 -1.53125 3.578125 -1.53125q2.1875 0 3.53125 1.515625q1.34375 1.5 1.34375 3.921875l0 0.390625l-8.21875 0q0.09375 1.5625 1.125 2.546875q1.046875 0.96875 2.53125 0.96875q1.84375 0 3.125 -1.28125l0.765625 1.03125q-1.5625 1.546875 -4.03125 1.546875zm3.140625 -5.96875q0 -1.40625 -0.921875 -2.390625q-0.921875 -0.984375 -2.40625 -0.984375q-1.40625 0 -2.34375 0.984375q-0.9375 0.984375 -0.984375 2.390625l6.65625 0zm8.757751 5.96875q-2.21875 0 -3.640625 -1.5q-1.421875 -1.515625 -1.421875 -3.828125q0 -2.296875 1.421875 -3.796875q1.421875 -1.515625 3.640625 -1.515625q2.359375 0 3.71875 1.765625l-1.046875 0.953125q-0.96875 -1.3125 -2.59375 -1.3125q-1.546875 0 -2.53125 1.078125q-0.96875 1.078125 -0.96875 2.828125q0 1.765625 0.96875 2.84375q0.96875 1.078125 2.53125 1.078125q1.609375 0 2.59375 -1.328125l1.046875 0.96875q-1.359375 1.765625 -3.71875 1.765625zm12.932495 -0.25l0 -1.421875q-0.59375 0.671875 -1.546875 1.171875q-0.9375 0.5 -2.0625 0.5q-3.234375 0 -3.234375 -3.234375l0 -7.15625l1.578125 0l0 6.671875q0 1.203125 0.53125 1.765625q0.546875 0.546875 1.734375 0.546875q0.921875 0 1.734375 -0.453125q0.828125 -0.46875 1.265625 -1.078125l0 -7.453125l1.578125 0l0 10.140625l-1.578125 0zm4.908081 0l0 -10.140625l1.578125 0l0 1.640625q1.40625 -1.859375 3.375 -1.859375l0 1.625l-0.625 -0.0625q-0.71875 0 -1.578125 0.515625q-0.859375 0.515625 -1.171875 1.09375l0 7.1875l-1.578125 0zm7.81958 -11.59375q-0.421875 0 -0.75 -0.296875q-0.3125 -0.3125 -0.3125 -0.75q0 -0.4375 0.3125 -0.75q0.328125 -0.328125 0.75 -0.328125q0.4375 0 0.75 0.328125q0.3125 0.3125 0.3125 0.75q0 0.4375 -0.3125 0.75q-0.3125 0.296875 -0.75 0.296875zm-0.78125 11.59375l0 -10.140625l1.578125 0l0 10.140625l-1.578125 0zm7.361328 0.25q-2.25 0 -2.25 -2.375l0 -6.625l-1.6875 0l0 -1.390625l1.6875 0l0 -2.78125l1.578125 0l0 2.78125l2.046875 0l0 1.390625l-2.046875 0l0 6.296875q0 0.5625 0.25 0.9375q0.25 0.359375 0.78125 0.359375q0.640625 0 1.0625 -0.421875l0.46875 1.171875q-0.65625 0.65625 -1.890625 0.65625zm3.3955078 2.296875q0.328125 0.15625 0.859375 0.15625q0.515625 0 0.875 -0.21875q0.359375 -0.21875 0.640625 -0.84375l0.671875 -1.53125l-4.25 -10.25l1.703125 0l3.375 8.3125l3.359375 -8.3125l1.734375 0l-5.09375 12.203125q-0.828125 2.015625 -2.984375 2.046875q-0.609375 0 -1.140625 -0.140625l0.25 -1.421875z" fill-rule="nonzero"></path><path fill="#000000" fill-opacity="0.0" d="m0 551.8427l0 0c0 -4.8184814 3.9061294 -8.724609 8.724584 -8.724609l942.5508 0c2.3139038 0 4.533081 0.91918945 6.1692505 2.555359c1.6361694 1.6361694 2.555359 3.8553467 2.555359 6.1692505l0 34.897278c0 4.8184204 -3.906128 8.724548 -8.724609 8.724548l-942.5508 0c-4.8184543 0 -8.724584 -3.906128 -8.724584 -8.724548z" fill-rule="nonzero"></path><path stroke="#999999" stroke-width="1.0" stroke-linejoin="round" stroke-linecap="butt" stroke-dasharray="4.0,3.0" d="m0 551.8427l0 0c0 -4.8184814 3.9061294 -8.724609 8.724584 -8.724609l942.5508 0c2.3139038 0 4.533081 0.91918945 6.1692505 2.555359c1.6361694 1.6361694 2.555359 3.8553467 2.555359 6.1692505l0 34.897278c0 4.8184204 -3.906128 8.724548 -8.724609 8.724548l-942.5508 0c-4.8184543 0 -8.724584 -3.906128 -8.724584 -8.724548z" fill-rule="nonzero"></path><path fill="#999999" d="m845.08655 576.77136l0 -14.0l9.171875 0l0 1.546875l-7.4375 0l0 4.515625l7.296875 0l0 1.546875l-7.296875 0l0 4.84375l7.4375 0l0 1.546875l-9.171875 0zm18.635742 0l-3.03125 -4.15625l-3.046875 4.15625l-1.8125 0l3.890625 -5.203125l-3.671875 -4.9375l1.8125 0l2.828125 3.859375l2.8125 -3.859375l1.828125 0l-3.6875 4.9375l3.90625 5.203125l-1.828125 0zm8.80304 0.25q-2.171875 0 -3.421875 -1.78125l0 5.390625l-1.578125 0l0 -14.0l1.578125 0l0 1.515625q0.546875 -0.78125 1.4375 -1.265625q0.90625 -0.5 1.984375 -0.5q2.03125 0 3.265625 1.4375q1.25 1.421875 1.25 3.875q0 2.4375 -1.234375 3.890625q-1.234375 1.4375 -3.28125 1.4375zm-0.40625 -1.40625q1.46875 0 2.359375 -1.0625q0.890625 -1.078125 0.890625 -2.859375q0 -1.75 -0.875 -2.828125q-0.875 -1.078125 -2.375 -1.078125q-0.9375 0 -1.78125 0.46875q-0.828125 0.46875 -1.234375 1.140625l0 4.578125q0.40625 0.671875 1.234375 1.15625q0.84375 0.484375 1.78125 0.484375zm7.605957 1.15625l0 -14.0l1.578125 0l0 14.0l-1.578125 0zm9.220703 0.25q-2.203125 0 -3.609375 -1.5q-1.40625 -1.5 -1.40625 -3.828125q0 -2.359375 1.40625 -3.828125q1.40625 -1.484375 3.609375 -1.484375q2.21875 0 3.625 1.484375q1.40625 1.46875 1.40625 3.828125q0 2.328125 -1.40625 3.828125q-1.40625 1.5 -3.625 1.5zm0 -1.40625q1.46875 0 2.40625 -1.09375q0.953125 -1.109375 0.953125 -2.828125q0 -1.703125 -0.953125 -2.796875q-0.9375 -1.109375 -2.40625 -1.109375q-1.46875 0 -2.421875 1.09375q-0.953125 1.09375 -0.953125 2.8125q0 1.734375 0.9375 2.828125q0.953125 1.09375 2.4375 1.09375zm7.777893 1.15625l0 -10.140625l1.578125 0l0 1.640625q1.40625 -1.859375 3.375 -1.859375l0 1.625l-0.625 -0.0625q-0.71875 0 -1.578125 0.515625q-0.859375 0.515625 -1.171875 1.09375l0 7.1875l-1.578125 0zm13.38208 0l0 -1.15625q-1.28125 1.40625 -3.359375 1.40625q-1.53125 0 -2.546875 -0.96875q-1.0 -0.96875 -1.0 -2.390625q0 -1.46875 0.984375 -2.40625q1.0 -0.9375 2.5625 -0.9375q2.171875 0 3.359375 1.390625l0 -1.828125q0 -1.03125 -0.734375 -1.578125q-0.71875 -0.5625 -1.828125 -0.5625q-1.796875 0 -3.109375 1.40625l-0.734375 -1.09375q1.609375 -1.671875 4.046875 -1.671875q1.875 0 2.890625 0.90625q1.03125 0.890625 1.03125 2.515625l0 6.96875l-1.5625 0zm-2.796875 -0.875q1.875 0 2.796875 -1.265625l0 -1.90625q-0.921875 -1.265625 -2.796875 -1.265625q-1.109375 0 -1.8125 0.625q-0.6875 0.609375 -0.6875 1.59375q0 0.96875 0.6875 1.59375q0.703125 0.625 1.8125 0.625zm10.255554 1.125q-2.25 0 -2.25 -2.375l0 -6.625l-1.6875 0l0 -1.390625l1.6875 0l0 -2.78125l1.578125 0l0 2.78125l2.046875 0l0 1.390625l-2.046875 0l0 6.296875q0 0.5625 0.25 0.9375q0.25 0.359375 0.78125 0.359375q0.640625 0 1.0625 -0.421875l0.46875 1.171875q-0.65625 0.65625 -1.890625 0.65625zm4.489258 -11.84375q-0.421875 0 -0.75 -0.296875q-0.3125 -0.3125 -0.3125 -0.75q0 -0.4375 0.3125 -0.75q0.328125 -0.328125 0.75 -0.328125q0.4375 0 0.75 0.328125q0.3125 0.3125 0.3125 0.75q0 0.4375 -0.3125 0.75q-0.3125 0.296875 -0.75 0.296875zm-0.78125 11.59375l0 -10.140625l1.578125 0l0 10.140625l-1.578125 0zm9.220703 0.25q-2.203125 0 -3.609375 -1.5q-1.40625 -1.5 -1.40625 -3.828125q0 -2.359375 1.40625 -3.828125q1.40625 -1.484375 3.609375 -1.484375q2.21875 0 3.625 1.484375q1.40625 1.46875 1.40625 3.828125q0 2.328125 -1.40625 3.828125q-1.40625 1.5 -3.625 1.5zm0 -1.40625q1.46875 0 2.40625 -1.09375q0.953125 -1.109375 0.953125 -2.828125q0 -1.703125 -0.953125 -2.796875q-0.9375 -1.109375 -2.40625 -1.109375q-1.46875 0 -2.421875 1.09375q-0.953125 1.09375 -0.953125 2.8125q0 1.734375 0.9375 2.828125q0.953125 1.09375 2.4375 1.09375zm14.621643 1.15625l0 -6.640625q0 -1.34375 -0.625 -1.84375q-0.609375 -0.5 -1.640625 -0.5q-0.890625 0 -1.75 0.46875q-0.84375 0.46875 -1.25 1.109375l0 7.40625l-1.578125 0l0 -10.140625l1.578125 0l0 1.46875q0.640625 -0.75 1.59375 -1.234375q0.96875 -0.484375 2.015625 -0.484375q3.234375 0 3.234375 3.265625l0 7.125l-1.578125 0z" fill-rule="nonzero"></path><path fill="#000000" fill-opacity="0.0" d="m11.750656 11.750656l795.8425 0l0 28.850395l-795.8425 0z" fill-rule="nonzero"></path><path stroke="#4a86e8" stroke-width="2.0" stroke-linejoin="round" stroke-linecap="butt" d="m11.750656 11.750656l795.8425 0l0 28.850395l-795.8425 0z" fill-rule="nonzero"></path><path fill="#4a86e8" d="m386.6126 33.09585l-1.125 -2.8125l-6.3125 0l-1.125 2.8125l-1.796875 0l5.09375 -12.671875l1.953125 0l5.109375 12.671875l-1.796875 0zm-4.28125 -11.03125l-2.703125 6.8125l5.390625 0l-2.6875 -6.8125zm18.338318 11.03125l0 -10.4375l-4.3125 10.4375l-0.640625 0l-4.296875 -10.4375l0 10.4375l-1.578125 0l0 -12.671875l2.265625 0l3.921875 9.53125l3.953125 -9.53125l2.265625 0l0 12.671875l-1.578125 0zm4.2647705 0l0 -12.671875l5.640625 0q1.609375 0 2.578125 0.890625q0.96875 0.875 0.96875 2.34375q0 1.109375 -0.625 1.890625q-0.609375 0.78125 -1.59375 1.015625q1.015625 0.140625 1.734375 1.0625q0.734375 0.90625 0.734375 2.046875q0 1.5625 -0.984375 2.5q-0.96875 0.921875 -2.671875 0.921875l-5.78125 0zm5.375 -7.1875q1.078125 0 1.625 -0.578125q0.5625 -0.578125 0.5625 -1.453125q0 -0.84375 -0.5625 -1.4375q-0.546875 -0.609375 -1.625 -0.609375l-3.796875 0l0 4.078125l3.796875 0zm0.078125 5.78125q1.125 0 1.734375 -0.578125q0.625 -0.578125 0.625 -1.609375q0 -0.96875 -0.65625 -1.578125q-0.640625 -0.609375 -1.703125 -0.609375l-3.875 0l0 4.375l3.875 0zm15.328552 1.40625l-1.125 -2.8125l-6.3125 0l-1.125 2.8125l-1.796875 0l5.09375 -12.671875l1.953125 0l5.109375 12.671875l-1.796875 0zm-4.28125 -11.03125l-2.703125 6.8125l5.390625 0l-2.6875 -6.8125zm14.838318 11.03125l-3.21875 -5.03125l-2.53125 0l0 5.03125l-1.578125 0l0 -12.671875l5.09375 0q1.78125 0 2.875 1.0625q1.09375 1.0625 1.09375 2.75q0 1.59375 -0.921875 2.578125q-0.921875 0.984375 -2.359375 1.109375l3.40625 5.171875l-1.859375 0zm-2.421875 -6.421875q1.140625 0 1.828125 -0.671875q0.6875 -0.671875 0.6875 -1.765625q0 -1.078125 -0.6875 -1.734375q-0.6875 -0.671875 -1.828125 -0.671875l-3.328125 0l0 4.84375l3.328125 0zm6.4367676 6.421875l0 -12.671875l1.578125 0l0 12.671875l-1.578125 0z" fill-rule="nonzero"></path><path fill="#000000" fill-opacity="0.0" d="m11.750656 253.13387l795.8425 0l0 28.850388l-795.8425 0z" fill-rule="nonzero"></path><path stroke="#4a86e8" stroke-width="2.0" stroke-linejoin="round" stroke-linecap="butt" d="m11.750656 253.13387l795.8425 0l0 28.850388l-795.8425 0z" fill-rule="nonzero"></path><path fill="#4a86e8" d="m345.2158 274.47906l0 -12.671875l8.296875 0l0 1.40625l-6.71875 0l0 4.078125l6.59375 0l0 1.40625l-6.59375 0l0 5.78125l-1.578125 0zm10.260956 0l0 -12.671875l1.578125 0l0 11.265625l5.890625 0l0 1.40625l-7.46875 0zm9.514679 0l0 -12.671875l1.578125 0l0 12.671875l-1.578125 0zm13.427582 0l-7.390625 -10.109375l0 10.109375l-1.578125 0l0 -12.671875l1.609375 0l7.296875 9.890625l0 -9.890625l1.578125 0l0 12.671875l-1.515625 0zm11.896149 0l-4.8125 -5.703125l-1.265625 1.453125l0 4.25l-1.578125 0l0 -12.671875l1.578125 0l0 6.546875l5.59375 -6.546875l1.984375 0l-5.28125 6.015625l5.734375 6.65625l-1.953125 0zm15.697601 0l-3.21875 -5.03125l-2.53125 0l0 5.03125l-1.578125 0l0 -12.671875l5.09375 0q1.78125 0 2.875 1.0625q1.09375 1.0625 1.09375 2.75q0 1.59375 -0.921875 2.578125q-0.921875 0.984375 -2.359375 1.109375l3.40625 5.171875l-1.859375 0zm-2.421875 -6.421875q1.140625 0 1.828125 -0.671875q0.6875 -0.671875 0.6875 -1.765625q0 -1.078125 -0.6875 -1.734375q-0.6875 -0.671875 -1.828125 -0.671875l-3.328125 0l0 4.84375l3.328125 0zm11.608612 6.65625q-2.453125 0 -3.8125 -1.34375q-1.359375 -1.34375 -1.359375 -3.8125l0 -7.75l1.578125 0l0 7.71875q0 1.734375 0.90625 2.765625q0.921875 1.015625 2.6875 1.015625q1.765625 0 2.671875 -1.015625q0.90625 -1.03125 0.90625 -2.765625l0 -7.71875l1.578125 0l0 7.734375q0 2.46875 -1.328125 3.828125q-1.328125 1.34375 -3.828125 1.34375zm16.856232 -0.234375l-7.390625 -10.109375l0 10.109375l-1.578125 0l0 -12.671875l1.609375 0l7.296875 9.890625l0 -9.890625l1.578125 0l0 12.671875l-1.515625 0zm7.3648987 0l0 -11.265625l-4.0 0l0 -1.40625l9.609375 0l0 1.40625l-4.03125 0l0 11.265625l-1.578125 0zm7.5090637 0l0 -12.671875l1.578125 0l0 12.671875l-1.578125 0zm15.286987 0l0 -10.4375l-4.3125 10.4375l-0.640625 0l-4.296875 -10.4375l0 10.4375l-1.578125 0l0 -12.671875l2.265625 0l3.921875 9.53125l3.953125 -9.53125l2.265625 0l0 12.671875l-1.578125 0zm4.2647705 0l0 -12.671875l8.296875 0l0 1.40625l-6.71875 0l0 4.078125l6.59375 0l0 1.40625l-6.59375 0l0 4.375l6.71875 0l0 1.40625l-8.296875 0z" fill-rule="nonzero"></path><path fill="#000000" fill-opacity="0.0" d="m11.750656 132.44095l389.92126 0l0 28.850388l-389.92126 0z" fill-rule="nonzero"></path><path stroke="#4a86e8" stroke-width="2.0" stroke-linejoin="round" stroke-linecap="butt" d="m11.750656 132.44095l389.92126 0l0 28.850388l-389.92126 0z" fill-rule="nonzero"></path><path fill="#4a86e8" d="m152.30652 154.02052q-3.0625 0 -4.875 -2.015625l0.9375 -1.203125q0.78125 0.875 1.8125 1.34375q1.046875 0.46875 2.171875 0.46875q1.375 0 2.171875 -0.609375q0.8125 -0.609375 0.8125 -1.578125q0 -1.5 -2.359375 -2.15625q-2.78125 -0.734375 -3.5625 -1.171875q-0.765625 -0.4375 -1.171875 -1.09375q-0.40625 -0.65625 -0.40625 -1.5625q0 -1.53125 1.21875 -2.515625q1.234375 -1.0 3.125 -1.0q2.859375 0 4.5 1.765625l-0.9375 1.15625q-1.375 -1.515625 -3.671875 -1.515625q-1.140625 0 -1.875 0.546875q-0.734375 0.546875 -0.734375 1.46875q0 0.65625 0.609375 1.125q0.609375 0.46875 1.765625 0.75q2.703125 0.734375 3.484375 1.21875q0.796875 0.46875 1.21875 1.171875q0.4375 0.6875 0.4375 1.671875q0 1.75 -1.28125 2.75q-1.265625 0.984375 -3.390625 0.984375zm9.948196 -0.234375l0 -11.265625l-4.0 0l0 -1.40625l9.609375 0l0 1.40625l-4.03125 0l0 11.265625l-1.578125 0zm16.555939 0l-1.125 -2.8125l-6.3125 0l-1.125 2.8125l-1.796875 0l5.09375 -12.671875l1.953125 0l5.109375 12.671875l-1.796875 0zm-4.28125 -11.03125l-2.703125 6.8125l5.390625 0l-2.6875 -6.8125zm16.478943 11.03125l-7.390625 -10.109375l0 10.109375l-1.578125 0l0 -12.671875l1.609375 0l7.296875 9.890625l0 -9.890625l1.578125 0l0 12.671875l-1.515625 0zm4.2398834 0l0 -12.671875l4.328125 0q2.890625 0 4.6875 1.796875q1.8125 1.796875 1.8125 4.546875q0 2.78125 -1.8125 4.5625q-1.8125 1.765625 -4.6875 1.765625l-4.328125 0zm4.328125 -1.40625q2.171875 0 3.515625 -1.359375q1.34375 -1.359375 1.34375 -3.5625q0 -2.203125 -1.328125 -3.5625q-1.328125 -1.375 -3.53125 -1.375l-2.75 0l0 9.859375l2.75 0zm17.778122 1.40625l-1.125 -2.8125l-6.3125 0l-1.125 2.8125l-1.796875 0l5.09375 -12.671875l1.953125 0l5.109375 12.671875l-1.796875 0zm-4.28125 -11.03125l-2.703125 6.8125l5.390625 0l-2.6875 -6.8125zm7.510193 11.03125l0 -12.671875l1.578125 0l0 11.265625l5.890625 0l0 1.40625l-7.46875 0zm15.295944 0.234375q-2.796875 0 -4.546875 -1.859375q-1.75 -1.875 -1.75 -4.703125q0 -2.84375 1.75 -4.6875q1.765625 -1.859375 4.546875 -1.859375q2.78125 0 4.53125 1.859375q1.75 1.859375 1.75 4.6875q0 2.84375 -1.765625 4.703125q-1.75 1.859375 -4.515625 1.859375zm0 -1.40625q2.0625 0 3.34375 -1.453125q1.296875 -1.453125 1.296875 -3.703125q0 -2.28125 -1.296875 -3.703125q-1.28125 -1.4375 -3.34375 -1.4375q-2.0625 0 -3.359375 1.40625q-1.296875 1.40625 -1.296875 3.734375q0 2.28125 1.28125 3.71875q1.28125 1.4375 3.375 1.4375zm17.459534 1.171875l-7.390625 -10.109375l0 10.109375l-1.578125 0l0 -12.671875l1.609375 0l7.296875 9.890625l0 -9.890625l1.578125 0l0 12.671875l-1.515625 0zm4.2398987 0l0 -12.671875l8.296875 0l0 1.40625l-6.71875 0l0 4.078125l6.59375 0l0 1.40625l-6.59375 0l0 4.375l6.71875 0l0 1.40625l-8.296875 0z" fill-rule="nonzero"></path><path fill="#000000" fill-opacity="0.0" d="m417.6719 132.44095l389.9213 0l0 28.850388l-389.9213 0z" fill-rule="nonzero"></path><path stroke="#6aa84f" stroke-width="2.0" stroke-linejoin="round" stroke-linecap="butt" d="m417.6719 132.44095l389.9213 0l0 28.850388l-389.9213 0z" fill-rule="nonzero"></path><path fill="#6aa84f" d="m593.5513 153.78615l0 -5.359375l-5.0 -7.3125l1.84375 0l3.9375 5.890625l3.921875 -5.890625l1.84375 0l-4.96875 7.3125l0 5.359375l-1.578125 0zm17.038208 0l-1.125 -2.8125l-6.3125 0l-1.125 2.8125l-1.796875 0l5.09375 -12.671875l1.953125 0l5.109375 12.671875l-1.796875 0zm-4.28125 -11.03125l-2.703125 6.8125l5.390625 0l-2.6875 -6.8125zm14.838318 11.03125l-3.21875 -5.03125l-2.53125 0l0 5.03125l-1.578125 0l0 -12.671875l5.09375 0q1.78125 0 2.875 1.0625q1.09375 1.0625 1.09375 2.75q0 1.59375 -0.921875 2.578125q-0.921875 0.984375 -2.359375 1.109375l3.40625 5.171875l-1.859375 0zm-2.421875 -6.421875q1.140625 0 1.828125 -0.671875q0.6875 -0.671875 0.6875 -1.765625q0 -1.078125 -0.6875 -1.734375q-0.6875 -0.671875 -1.828125 -0.671875l-3.328125 0l0 4.84375l3.328125 0zm15.405518 6.421875l-7.390625 -10.109375l0 10.109375l-1.578125 0l0 -12.671875l1.609375 0l7.296875 9.890625l0 -9.890625l1.578125 0l0 12.671875l-1.515625 0z" fill-rule="nonzero"></path><path fill="#000000" fill-opacity="0.0" d="m11.750656 72.09449l389.92126 0l0 28.850395l-389.92126 0z" fill-rule="nonzero"></path><path stroke="#6aa84f" stroke-width="2.0" stroke-linejoin="round" stroke-linecap="butt" d="m11.750656 72.09449l389.92126 0l0 28.850395l-389.92126 0z" fill-rule="nonzero"></path><path fill="#6aa84f" d="m193.75432 93.43968l-1.125 -2.8125l-6.3125 0l-1.125 2.8125l-1.796875 0l5.09375 -12.671875l1.953125 0l5.109375 12.671875l-1.796875 0zm-4.28125 -11.03125l-2.703125 6.8125l5.390625 0l-2.6875 -6.8125zm15.166443 11.03125l-4.8125 -5.703125l-1.265625 1.453125l0 4.25l-1.578125 0l0 -12.671875l1.578125 0l0 6.546875l5.59375 -6.546875l1.984375 0l-5.28125 6.015625l5.734375 6.65625l-1.953125 0zm11.212402 0l-4.8125 -5.703125l-1.265625 1.453125l0 4.25l-1.578125 0l0 -12.671875l1.578125 0l0 6.546875l5.59375 -6.546875l1.984375 0l-5.28125 6.015625l5.734375 6.65625l-1.953125 0zm12.603027 0l-1.125 -2.8125l-6.3125 0l-1.125 2.8125l-1.796875 0l5.09375 -12.671875l1.953125 0l5.109375 12.671875l-1.796875 0zm-4.28125 -11.03125l-2.703125 6.8125l5.390625 0l-2.6875 -6.8125z" fill-rule="nonzero"></path><path fill="#000000" fill-opacity="0.0" d="m417.6719 72.09449l389.9213 0l0 28.850395l-389.9213 0z" fill-rule="nonzero"></path><path stroke="#4a86e8" stroke-width="2.0" stroke-linejoin="round" stroke-linecap="butt" d="m417.6719 72.09449l389.9213 0l0 28.850395l-389.9213 0z" fill-rule="nonzero"></path><path fill="#4a86e8" d="m593.1545 93.43968l-4.8125 -5.703125l-1.265625 1.453125l0 4.25l-1.578125 0l0 -12.671875l1.578125 0l0 6.546875l5.59375 -6.546875l1.984375 0l-5.28125 6.015625l5.734375 6.65625l-1.953125 0zm12.603027 0l-1.125 -2.8125l-6.3125 0l-1.125 2.8125l-1.796875 0l5.09375 -12.671875l1.953125 0l5.109375 12.671875l-1.796875 0zm-4.28125 -11.03125l-2.703125 6.8125l5.390625 0l-2.6875 -6.8125zm7.510193 11.03125l0 -12.671875l8.296875 0l0 1.40625l-6.71875 0l0 4.078125l6.59375 0l0 1.40625l-6.59375 0l0 5.78125l-1.578125 0zm17.917175 0l-4.8125 -5.703125l-1.265625 1.453125l0 4.25l-1.578125 0l0 -12.671875l1.578125 0l0 6.546875l5.59375 -6.546875l1.984375 0l-5.28125 6.015625l5.734375 6.65625l-1.953125 0zm12.603027 0l-1.125 -2.8125l-6.3125 0l-1.125 2.8125l-1.796875 0l5.09375 -12.671875l1.953125 0l5.109375 12.671875l-1.796875 0zm-4.28125 -11.03125l-2.703125 6.8125l5.390625 0l-2.6875 -6.8125z" fill-rule="nonzero"></path><path fill="#000000" fill-opacity="0.0" d="m0 372.76047l0 0c0 -5.899353 4.782369 -10.681732 10.681721 -10.681732l938.6366 0c2.8329468 0 5.5498657 1.1253967 7.5531006 3.128601c2.0032349 2.0032043 3.128601 4.720154 3.128601 7.553131l0 151.67593c0 5.899353 -4.7823486 10.681702 -10.681702 10.681702l-938.6366 0c-5.8993516 0 -10.681721 -4.7823486 -10.681721 -10.681702z" fill-rule="nonzero"></path><path stroke="#999999" stroke-width="1.0" stroke-linejoin="round" stroke-linecap="butt" stroke-dasharray="4.0,3.0" d="m0 372.76047l0 0c0 -5.899353 4.782369 -10.681732 10.681721 -10.681732l938.6366 0c2.8329468 0 5.5498657 1.1253967 7.5531006 3.128601c2.0032349 2.0032043 3.128601 4.720154 3.128601 7.553131l0 151.67593c0 5.899353 -4.7823486 10.681702 -10.681702 10.681702l-938.6366 0c-5.8993516 0 -10.681721 -4.7823486 -10.681721 -10.681702z" fill-rule="nonzero"></path><path fill="#999999" d="m880.54626 456.32843q-3.375 0 -5.375 -2.21875l1.03125 -1.328125q0.859375 0.96875 2.015625 1.484375q1.15625 0.515625 2.390625 0.515625q1.515625 0 2.40625 -0.671875q0.890625 -0.671875 0.890625 -1.75q0 -1.65625 -2.59375 -2.375q-3.09375 -0.8125 -3.953125 -1.296875q-0.84375 -0.484375 -1.296875 -1.203125q-0.453125 -0.734375 -0.453125 -1.734375q0 -1.6875 1.359375 -2.78125q1.359375 -1.109375 3.453125 -1.109375q3.15625 0 4.984375 1.953125l-1.0625 1.28125q-1.5 -1.671875 -4.046875 -1.671875q-1.265625 0 -2.078125 0.609375q-0.796875 0.609375 -0.796875 1.609375q0 0.734375 0.671875 1.25q0.671875 0.515625 1.953125 0.828125q2.984375 0.828125 3.84375 1.359375q0.875 0.515625 1.34375 1.28125q0.484375 0.765625 0.484375 1.859375q0 1.921875 -1.40625 3.015625q-1.40625 1.09375 -3.765625 1.09375zm10.467102 0q-2.25 0 -2.25 -2.375l0 -6.625l-1.6875 0l0 -1.390625l1.6875 0l0 -2.78125l1.578125 0l0 2.78125l2.046875 0l0 1.390625l-2.046875 0l0 6.296875q0 0.5625 0.25 0.9375q0.25 0.359375 0.78125 0.359375q0.640625 0 1.0625 -0.421875l0.46875 1.171875q-0.65625 0.65625 -1.890625 0.65625zm8.129822 0q-2.203125 0 -3.609375 -1.5q-1.40625 -1.5 -1.40625 -3.828125q0 -2.359375 1.40625 -3.828125q1.40625 -1.484375 3.609375 -1.484375q2.21875 0 3.625 1.484375q1.40625 1.46875 1.40625 3.828125q0 2.328125 -1.40625 3.828125q-1.40625 1.5 -3.625 1.5zm0 -1.40625q1.46875 0 2.40625 -1.09375q0.953125 -1.109375 0.953125 -2.828125q0 -1.703125 -0.953125 -2.796875q-0.9375 -1.109375 -2.40625 -1.109375q-1.46875 0 -2.421875 1.09375q-0.953125 1.09375 -0.953125 2.8125q0 1.734375 0.9375 2.828125q0.953125 1.09375 2.4375 1.09375zm7.777893 1.15625l0 -10.140625l1.578125 0l0 1.640625q1.40625 -1.859375 3.375 -1.859375l0 1.625l-0.625 -0.0625q-0.71875 0 -1.578125 0.515625q-0.859375 0.515625 -1.171875 1.09375l0 7.1875l-1.578125 0zm13.38208 0l0 -1.15625q-1.28125 1.40625 -3.359375 1.40625q-1.53125 0 -2.546875 -0.96875q-1.0 -0.96875 -1.0 -2.390625q0 -1.46875 0.984375 -2.40625q1.0 -0.9375 2.5625 -0.9375q2.171875 0 3.359375 1.390625l0 -1.828125q0 -1.03125 -0.734375 -1.578125q-0.71875 -0.5625 -1.828125 -0.5625q-1.796875 0 -3.109375 1.40625l-0.734375 -1.09375q1.609375 -1.671875 4.046875 -1.671875q1.875 0 2.890625 0.90625q1.03125 0.890625 1.03125 2.515625l0 6.96875l-1.5625 0zm-2.796875 -0.875q1.875 0 2.796875 -1.265625l0 -1.90625q-0.921875 -1.265625 -2.796875 -1.265625q-1.109375 0 -1.8125 0.625q-0.6875 0.609375 -0.6875 1.59375q0 0.96875 0.6875 1.59375q0.703125 0.625 1.8125 0.625zm11.771179 4.984375q-1.3125 0 -2.265625 -0.3125q-0.9375 -0.3125 -1.84375 -1.1875l0.8125 -1.1875q0.625 0.765625 1.40625 1.078125q0.796875 0.3125 1.890625 0.3125q1.546875 0 2.390625 -0.8125q0.859375 -0.796875 0.859375 -2.234375l0 -1.453125q-0.546875 0.78125 -1.4375 1.296875q-0.890625 0.515625 -1.96875 0.515625q-2.0625 0 -3.296875 -1.4375q-1.21875 -1.453125 -1.21875 -3.8125q0 -2.4375 1.25 -3.84375q1.25 -1.421875 3.265625 -1.421875q2.109375 0 3.40625 1.78125l0 -1.53125l1.578125 0l0 9.84375q0 2.140625 -1.265625 3.265625q-1.265625 1.140625 -3.5625 1.140625zm0.21875 -5.375q0.859375 0 1.703125 -0.453125q0.859375 -0.46875 1.328125 -1.203125l0 -4.421875q-0.46875 -0.734375 -1.328125 -1.1875q-0.859375 -0.453125 -1.703125 -0.453125q-1.484375 0 -2.375 1.078125q-0.875 1.0625 -0.875 2.78125q0 1.75 0.90625 2.8125q0.90625 1.046875 2.34375 1.046875zm12.523682 1.515625q-2.296875 0 -3.734375 -1.484375q-1.4375 -1.5 -1.4375 -3.84375q0 -2.25 1.421875 -3.78125q1.4375 -1.53125 3.578125 -1.53125q2.1875 0 3.53125 1.515625q1.34375 1.5 1.34375 3.921875l0 0.390625l-8.21875 0q0.09375 1.5625 1.125 2.546875q1.046875 0.96875 2.53125 0.96875q1.84375 0 3.125 -1.28125l0.765625 1.03125q-1.5625 1.546875 -4.03125 1.546875zm3.140625 -5.96875q0 -1.40625 -0.921875 -2.390625q-0.921875 -0.984375 -2.40625 -0.984375q-1.40625 0 -2.34375 0.984375q-0.9375 0.984375 -0.984375 2.390625l6.65625 0z" fill-rule="nonzero"></path><path fill="#000000" fill-opacity="0.0" d="m11.750656 554.86615l795.8425 0l0 28.850403l-795.8425 0z" fill-rule="nonzero"></path><path stroke="#4a86e8" stroke-width="2.0" stroke-linejoin="round" stroke-linecap="butt" d="m11.750656 554.86615l795.8425 0l0 28.850403l-795.8425 0z" fill-rule="nonzero"></path><path fill="#4a86e8" d="m369.96353 576.21136l0 -1.3125l7.125 -9.953125l-7.125 0l0 -1.40625l9.140625 0l0 1.3125l-7.125 9.953125l7.265625 0l0 1.40625l-9.28125 0zm11.492035 0l0 -12.671875l8.296875 0l0 1.40625l-6.71875 0l0 4.078125l6.59375 0l0 1.40625l-6.59375 0l0 4.375l6.71875 0l0 1.40625l-8.296875 0zm10.6154175 0l0 -12.671875l5.09375 0q1.796875 0 2.875 1.09375q1.09375 1.078125 1.09375 2.71875q0 1.671875 -1.109375 2.75q-1.09375 1.078125 -2.859375 1.078125l-3.515625 0l0 5.03125l-1.578125 0zm4.90625 -6.4375q1.140625 0 1.828125 -0.65625q0.6875 -0.671875 0.6875 -1.765625q0 -1.078125 -0.6875 -1.734375q-0.6875 -0.671875 -1.828125 -0.671875l-3.328125 0l0 4.828125l3.328125 0zm6.0449524 6.4375l0 -12.671875l5.09375 0q1.796875 0 2.875 1.09375q1.09375 1.078125 1.09375 2.71875q0 1.671875 -1.109375 2.75q-1.09375 1.078125 -2.859375 1.078125l-3.515625 0l0 5.03125l-1.578125 0zm4.90625 -6.4375q1.140625 0 1.828125 -0.65625q0.6875 -0.671875 0.6875 -1.765625q0 -1.078125 -0.6875 -1.734375q-0.6875 -0.671875 -1.828125 -0.671875l-3.328125 0l0 4.828125l3.328125 0zm6.0449524 6.4375l0 -12.671875l8.296875 0l0 1.40625l-6.71875 0l0 4.078125l6.59375 0l0 1.40625l-6.59375 0l0 4.375l6.71875 0l0 1.40625l-8.296875 0zm10.6154175 0l0 -12.671875l1.578125 0l0 11.265625l5.890625 0l0 1.40625l-7.46875 0zm9.514709 0l0 -12.671875l1.578125 0l0 12.671875l-1.578125 0zm13.427582 0l-7.390625 -10.109375l0 10.109375l-1.578125 0l0 -12.671875l1.609375 0l7.296875 9.890625l0 -9.890625l1.578125 0l0 12.671875l-1.515625 0z" fill-rule="nonzero"></path><path fill="#000000" fill-opacity="0.0" d="m11.750656 313.48032l795.8425 0l0 28.850403l-795.8425 0z" fill-rule="nonzero"></path><path stroke="#6aa84f" stroke-width="2.0" stroke-linejoin="round" stroke-linecap="butt" d="m11.750656 313.48032l795.8425 0l0 28.850403l-795.8425 0z" fill-rule="nonzero"></path><path fill="#6aa84f" d="m372.77826 334.8255l-4.8125 -5.703125l-1.265625 1.453125l0 4.25l-1.578125 0l0 -12.671875l1.578125 0l0 6.546875l5.59375 -6.546875l1.984375 0l-5.28125 6.015625l5.734375 6.65625l-1.953125 0zm3.5561523 0l0 -12.671875l8.296875 0l0 1.40625l-6.71875 0l0 4.078125l6.59375 0l0 1.40625l-6.59375 0l0 4.375l6.71875 0l0 1.40625l-8.296875 0zm17.943542 0l-3.21875 -5.03125l-2.53125 0l0 5.03125l-1.578125 0l0 -12.671875l5.09375 0q1.78125 0 2.875 1.0625q1.09375 1.0625 1.09375 2.75q0 1.59375 -0.921875 2.578125q-0.921875 0.984375 -2.359375 1.109375l3.40625 5.171875l-1.859375 0zm-2.421875 -6.421875q1.140625 0 1.828125 -0.671875q0.6875 -0.671875 0.6875 -1.765625q0 -1.078125 -0.6875 -1.734375q-0.6875 -0.671875 -1.828125 -0.671875l-3.328125 0l0 4.84375l3.328125 0zm6.436737 6.421875l0 -12.671875l5.640625 0q1.609375 0 2.578125 0.890625q0.96875 0.875 0.96875 2.34375q0 1.109375 -0.625 1.890625q-0.609375 0.78125 -1.59375 1.015625q1.015625 0.140625 1.734375 1.0625q0.734375 0.90625 0.734375 2.046875q0 1.5625 -0.984375 2.5q-0.96875 0.921875 -2.671875 0.921875l-5.78125 0zm5.375 -7.1875q1.078125 0 1.625 -0.578125q0.5625 -0.578125 0.5625 -1.453125q0 -0.84375 -0.5625 -1.4375q-0.546875 -0.609375 -1.625 -0.609375l-3.796875 0l0 4.078125l3.796875 0zm0.078125 5.78125q1.125 0 1.734375 -0.578125q0.625 -0.578125 0.625 -1.609375q0 -0.96875 -0.65625 -1.578125q-0.640625 -0.609375 -1.703125 -0.609375l-3.875 0l0 4.375l3.875 0zm6.2816467 1.40625l0 -12.671875l8.296875 0l0 1.40625l-6.71875 0l0 4.078125l6.59375 0l0 1.40625l-6.59375 0l0 4.375l6.71875 0l0 1.40625l-8.296875 0zm17.943542 0l-3.21875 -5.03125l-2.53125 0l0 5.03125l-1.578125 0l0 -12.671875l5.09375 0q1.78125 0 2.875 1.0625q1.09375 1.0625 1.09375 2.75q0 1.59375 -0.921875 2.578125q-0.921875 0.984375 -2.359375 1.109375l3.40625 5.171875l-1.859375 0zm-2.421875 -6.421875q1.140625 0 1.828125 -0.671875q0.6875 -0.671875 0.6875 -1.765625q0 -1.078125 -0.6875 -1.734375q-0.6875 -0.671875 -1.828125 -0.671875l-3.328125 0l0 4.84375l3.328125 0zm12.218018 6.65625q-2.796875 0 -4.546875 -1.859375q-1.75 -1.875 -1.75 -4.703125q0 -2.84375 1.75 -4.6875q1.765625 -1.859375 4.546875 -1.859375q2.78125 0 4.53125 1.859375q1.75 1.859375 1.75 4.6875q0 2.84375 -1.765625 4.703125q-1.75 1.859375 -4.515625 1.859375zm0 -1.40625q2.0625 0 3.34375 -1.453125q1.296875 -1.453125 1.296875 -3.703125q0 -2.28125 -1.296875 -3.703125q-1.28125 -1.4375 -3.34375 -1.4375q-2.0625 0 -3.359375 1.40625q-1.296875 1.40625 -1.296875 3.734375q0 2.28125 1.28125 3.71875q1.28125 1.4375 3.375 1.4375zm12.600159 1.40625q-3.0625 0 -4.875 -2.015625l0.9375 -1.203125q0.78125 0.875 1.8125 1.34375q1.046875 0.46875 2.171875 0.46875q1.375 0 2.171875 -0.609375q0.8125 -0.609375 0.8125 -1.578125q0 -1.5 -2.359375 -2.15625q-2.78125 -0.734375 -3.5625 -1.171875q-0.765625 -0.4375 -1.171875 -1.09375q-0.40625 -0.65625 -0.40625 -1.5625q0 -1.53125 1.21875 -2.515625q1.234375 -1.0 3.125 -1.0q2.859375 0 4.5 1.765625l-0.9375 1.15625q-1.375 -1.515625 -3.671875 -1.515625q-1.140625 0 -1.875 0.546875q-0.734375 0.546875 -0.734375 1.46875q0 0.65625 0.609375 1.125q0.609375 0.46875 1.765625 0.75q2.703125 0.734375 3.484375 1.21875q0.796875 0.46875 1.21875 1.171875q0.4375 0.6875 0.4375 1.671875q0 1.75 -1.28125 2.75q-1.265625 0.984375 -3.390625 0.984375z" fill-rule="nonzero"></path><path fill="#000000" fill-opacity="0.0" d="m11.750656 437.11023l389.92126 0l0 28.850403l-389.92126 0z" fill-rule="nonzero"></path><path stroke="#4a86e8" stroke-width="2.0" stroke-linejoin="round" stroke-linecap="butt" d="m11.750656 437.11023l389.92126 0l0 28.850403l-389.92126 0z" fill-rule="nonzero"></path><path fill="#4a86e8" d="m179.61287 458.45544l-1.125 -2.8125l-6.3125 0l-1.125 2.8125l-1.796875 0l5.09375 -12.671875l1.953125 0l5.109375 12.671875l-1.796875 0zm-4.28125 -11.03125l-2.703125 6.8125l5.390625 0l-2.6875 -6.8125zm7.510193 11.03125l0 -12.671875l1.578125 0l0 11.265625l5.890625 0l0 1.40625l-7.46875 0zm9.514694 0l0 -12.671875l1.578125 0l0 11.265625l5.890625 0l0 1.40625l-7.46875 0zm14.686569 0.234375q-2.453125 0 -3.8125 -1.34375q-1.359375 -1.34375 -1.359375 -3.8125l0 -7.75l1.578125 0l0 7.71875q0 1.734375 0.90625 2.765625q0.921875 1.015625 2.6875 1.015625q1.765625 0 2.671875 -1.015625q0.90625 -1.03125 0.90625 -2.765625l0 -7.71875l1.578125 0l0 7.734375q0 2.46875 -1.328125 3.828125q-1.328125 1.34375 -3.828125 1.34375zm16.637497 -0.234375l-4.046875 -5.390625l-4.046875 5.390625l-1.90625 0l4.9375 -6.5l-4.65625 -6.171875l1.921875 0l3.75 5.078125l3.75 -5.078125l1.921875 0l-4.640625 6.15625l4.921875 6.515625l-1.90625 0zm3.4138794 0l0 -12.671875l1.578125 0l0 12.671875l-1.578125 0zm10.240097 0.234375q-2.796875 0 -4.546875 -1.859375q-1.75 -1.875 -1.75 -4.703125q0 -2.84375 1.75 -4.6875q1.765625 -1.859375 4.546875 -1.859375q2.78125 0 4.53125 1.859375q1.75 1.859375 1.75 4.6875q0 2.84375 -1.765625 4.703125q-1.75 1.859375 -4.515625 1.859375zm0 -1.40625q2.0625 0 3.34375 -1.453125q1.296875 -1.453125 1.296875 -3.703125q0 -2.28125 -1.296875 -3.703125q-1.28125 -1.4375 -3.34375 -1.4375q-2.0625 0 -3.359375 1.40625q-1.296875 1.40625 -1.296875 3.734375q0 2.28125 1.28125 3.71875q1.28125 1.4375 3.375 1.4375z" fill-rule="nonzero"></path><path fill="#000000" fill-opacity="0.0" d="m417.6719 437.11023l389.9213 0l0 28.850403l-389.9213 0z" fill-rule="nonzero"></path><path stroke="#4a86e8" stroke-width="2.0" stroke-linejoin="round" stroke-linecap="butt" d="m417.6719 437.11023l389.9213 0l0 28.850403l-389.9213 0z" fill-rule="nonzero"></path><path fill="#4a86e8" d="m565.6593 458.68982q-2.796875 0 -4.65625 -1.84375q-1.859375 -1.84375 -1.859375 -4.71875q0 -2.875 1.859375 -4.703125q1.859375 -1.84375 4.65625 -1.84375q3.015625 0 4.8125 2.5l-1.328125 0.734375q-0.5625 -0.796875 -1.484375 -1.3125q-0.921875 -0.515625 -2.0 -0.515625q-2.109375 0 -3.5 1.46875q-1.375 1.453125 -1.375 3.671875q0 2.25 1.375 3.703125q1.375 1.453125 3.5 1.453125q1.078125 0 2.0 -0.515625q0.921875 -0.515625 1.484375 -1.328125l1.34375 0.734375q-1.84375 2.515625 -4.828125 2.515625zm15.658508 -0.234375l-1.125 -2.8125l-6.3125 0l-1.125 2.8125l-1.796875 0l5.09375 -12.671875l1.953125 0l5.109375 12.671875l-1.796875 0zm-4.28125 -11.03125l-2.703125 6.8125l5.390625 0l-2.6875 -6.8125zm11.619568 11.265625q-3.0625 0 -4.875 -2.015625l0.9375 -1.203125q0.78125 0.875 1.8125 1.34375q1.046875 0.46875 2.171875 0.46875q1.375 0 2.171875 -0.609375q0.8125 -0.609375 0.8125 -1.578125q0 -1.5 -2.359375 -2.15625q-2.78125 -0.734375 -3.5625 -1.171875q-0.765625 -0.4375 -1.171875 -1.09375q-0.40625 -0.65625 -0.40625 -1.5625q0 -1.53125 1.21875 -2.515625q1.234375 -1.0 3.125 -1.0q2.859375 0 4.5 1.765625l-0.9375 1.15625q-1.375 -1.515625 -3.671875 -1.515625q-1.140625 0 -1.875 0.546875q-0.734375 0.546875 -0.734375 1.46875q0 0.65625 0.609375 1.125q0.609375 0.46875 1.765625 0.75q2.703125 0.734375 3.484375 1.21875q0.796875 0.46875 1.21875 1.171875q0.4375 0.6875 0.4375 1.671875q0 1.75 -1.28125 2.75q-1.265625 0.984375 -3.390625 0.984375zm10.932556 0q-3.0625 0 -4.875 -2.015625l0.9375 -1.203125q0.78125 0.875 1.8125 1.34375q1.046875 0.46875 2.171875 0.46875q1.375 0 2.171875 -0.609375q0.8125 -0.609375 0.8125 -1.578125q0 -1.5 -2.359375 -2.15625q-2.78125 -0.734375 -3.5625 -1.171875q-0.765625 -0.4375 -1.171875 -1.09375q-0.40625 -0.65625 -0.40625 -1.5625q0 -1.53125 1.21875 -2.515625q1.234375 -1.0 3.125 -1.0q2.859375 0 4.5 1.765625l-0.9375 1.15625q-1.375 -1.515625 -3.671875 -1.515625q-1.140625 0 -1.875 0.546875q-0.734375 0.546875 -0.734375 1.46875q0 0.65625 0.609375 1.125q0.609375 0.46875 1.765625 0.75q2.703125 0.734375 3.484375 1.21875q0.796875 0.46875 1.21875 1.171875q0.4375 0.6875 0.4375 1.671875q0 1.75 -1.28125 2.75q-1.265625 0.984375 -3.390625 0.984375zm15.870117 -0.234375l-1.125 -2.8125l-6.3125 0l-1.125 2.8125l-1.796875 0l5.09375 -12.671875l1.953125 0l5.109375 12.671875l-1.796875 0zm-4.28125 -11.03125l-2.703125 6.8125l5.390625 0l-2.6875 -6.8125zm16.478943 11.03125l-7.390625 -10.109375l0 10.109375l-1.578125 0l0 -12.671875l1.609375 0l7.296875 9.890625l0 -9.890625l1.578125 0l0 12.671875l-1.515625 0zm4.239868 0l0 -12.671875l4.328125 0q2.890625 0 4.6875 1.796875q1.8125 1.796875 1.8125 4.546875q0 2.78125 -1.8125 4.5625q-1.8125 1.765625 -4.6875 1.765625l-4.328125 0zm4.328125 -1.40625q2.171875 0 3.515625 -1.359375q1.34375 -1.359375 1.34375 -3.5625q0 -2.203125 -1.328125 -3.5625q-1.328125 -1.375 -3.53125 -1.375l-2.75 0l0 9.859375l2.75 0zm16.059387 1.40625l-3.21875 -5.03125l-2.53125 0l0 5.03125l-1.578125 0l0 -12.671875l5.09375 0q1.78125 0 2.875 1.0625q1.09375 1.0625 1.09375 2.75q0 1.59375 -0.921875 2.578125q-0.921875 0.984375 -2.359375 1.109375l3.40625 5.171875l-1.859375 0zm-2.421875 -6.421875q1.140625 0 1.828125 -0.671875q0.6875 -0.671875 0.6875 -1.765625q0 -1.078125 -0.6875 -1.734375q-0.6875 -0.671875 -1.828125 -0.671875l-3.328125 0l0 4.84375l3.328125 0zm15.483582 6.421875l-1.125 -2.8125l-6.3125 0l-1.125 2.8125l-1.796875 0l5.09375 -12.671875l1.953125 0l5.109375 12.671875l-1.796875 0zm-4.28125 -11.03125l-2.703125 6.8125l5.390625 0l-2.6875 -6.8125z" fill-rule="nonzero"></path><path fill="#000000" fill-opacity="0.0" d="m11.750656 376.7638l186.96063 0l0 28.850372l-186.96063 0z" fill-rule="nonzero"></path><path stroke="#6aa84f" stroke-width="2.0" stroke-linejoin="round" stroke-linecap="butt" d="m11.750656 376.7638l186.96063 0l0 28.850372l-186.96063 0z" fill-rule="nonzero"></path><path fill="#6aa84f" d="m90.67889 398.10898l-1.125 -2.8125l-6.3125 0l-1.125 2.8125l-1.796875 0l5.09375 -12.671875l1.953125 0l5.109375 12.671875l-1.796875 0zm-4.28125 -11.03125l-2.703125 6.8125l5.390625 0l-2.6875 -6.8125zm11.291443 11.03125l-5.09375 -12.671875l1.796875 0l4.28125 10.9375l4.28125 -10.9375l1.796875 0l-5.109375 12.671875l-1.953125 0zm15.822693 0l-3.21875 -5.03125l-2.53125 0l0 5.03125l-1.578125 0l0 -12.671875l5.09375 0q1.78125 0 2.875 1.0625q1.09375 1.0625 1.09375 2.75q0 1.59375 -0.921875 2.578125q-0.921875 0.984375 -2.359375 1.109375l3.40625 5.171875l-1.859375 0zm-2.421875 -6.421875q1.140625 0 1.828125 -0.671875q0.6875 -0.671875 0.6875 -1.765625q0 -1.078125 -0.6875 -1.734375q-0.6875 -0.671875 -1.828125 -0.671875l-3.328125 0l0 4.84375l3.328125 0zm12.218002 6.65625q-2.796875 0 -4.546875 -1.859375q-1.75 -1.875 -1.75 -4.703125q0 -2.84375 1.75 -4.6875q1.765625 -1.859375 4.546875 -1.859375q2.78125 0 4.53125 1.859375q1.7500076 1.859375 1.7500076 4.6875q0 2.84375 -1.7656326 4.703125q-1.75 1.859375 -4.515625 1.859375zm0 -1.40625q2.0625 0 3.34375 -1.453125q1.296875 -1.453125 1.296875 -3.703125q0 -2.28125 -1.296875 -3.703125q-1.28125 -1.4375 -3.34375 -1.4375q-2.0625 0 -3.359375 1.40625q-1.296875 1.40625 -1.296875 3.734375q0 2.28125 1.28125 3.71875q1.28125 1.4375 3.375 1.4375z" fill-rule="nonzero"></path><path fill="#000000" fill-opacity="0.0" d="m11.750656 491.58267l389.92126 0l0 28.850372l-389.92126 0z" fill-rule="nonzero"></path><path stroke="#6aa84f" stroke-width="2.0" stroke-linejoin="round" stroke-linecap="butt" d="m11.750656 491.58267l389.92126 0l0 28.850372l-389.92126 0z" fill-rule="nonzero"></path><path fill="#6aa84f" d="m193.41197 512.92786l0 -5.8124695l-7.40625 0l0 5.8124695l-1.578125 0l0 -12.6718445l1.578125 0l0 5.453125l7.40625 0l0 -5.453125l1.578125 0l0 12.6718445l-1.578125 0zm4.298874 0l0 -12.6718445l4.328125 0q2.890625 0 4.6875 1.796875q1.8125 1.796875 1.8125 4.546875q0 2.78125 -1.8125 4.5625q-1.8125 1.7655945 -4.6875 1.7655945l-4.328125 0zm4.328125 -1.4062195q2.171875 0 3.515625 -1.359375q1.34375 -1.359375 1.34375 -3.5625q0 -2.203125 -1.328125 -3.5625q-1.328125 -1.375 -3.53125 -1.375l-2.75 0l0 9.859375l2.75 0zm8.731247 1.4062195l0 -12.6718445l8.296875 0l0 1.40625l-6.71875 0l0 4.078125l6.59375 0l0 1.40625l-6.59375 0l0 5.7812195l-1.578125 0zm14.370316 0.234375q-3.0625 0 -4.875 -2.0155945l0.9375 -1.203125q0.78125 0.875 1.8125 1.34375q1.046875 0.46875 2.171875 0.46875q1.375 0 2.171875 -0.609375q0.8125 -0.609375 0.8125 -1.578125q0 -1.5 -2.359375 -2.15625q-2.78125 -0.734375 -3.5625 -1.171875q-0.765625 -0.4375 -1.171875 -1.09375q-0.40625 -0.65625 -0.40625 -1.5625q0 -1.53125 1.21875 -2.515625q1.234375 -1.0 3.125 -1.0q2.859375 0 4.5 1.765625l-0.9375 1.15625q-1.375 -1.515625 -3.671875 -1.515625q-1.140625 0 -1.875 0.546875q-0.734375 0.546875 -0.734375 1.46875q0 0.65625 0.609375 1.125q0.609375 0.46875 1.765625 0.75q2.703125 0.734375 3.484375 1.21875q0.796875 0.46875 1.21875 1.171875q0.4375 0.6875 0.4375 1.671875q0 1.75 -1.28125 2.7499695q-1.265625 0.984375 -3.390625 0.984375z" fill-rule="nonzero"></path><path fill="#000000" fill-opacity="0.0" d="m417.6719 491.58267l86.55118 0l0 28.850372l-86.55118 0z" fill-rule="nonzero"></path><path stroke="#6aa84f" stroke-width="2.0" stroke-linejoin="round" stroke-linecap="butt" d="m417.6719 491.58267l86.55118 0l0 28.850372l-86.55118 0z" fill-rule="nonzero"></path><path fill="#6aa84f" d="m441.02383 512.92786l0 -12.6718445l4.328125 0q2.890625 0 4.6875 1.796875q1.8125 1.796875 1.8125 4.546875q0 2.78125 -1.8125 4.5625q-1.8125 1.7655945 -4.6875 1.7655945l-4.328125 0zm4.328125 -1.4062195q2.171875 0 3.515625 -1.359375q1.34375 -1.359375 1.34375 -3.5625q0 -2.203125 -1.328125 -3.5625q-1.328125 -1.375 -3.53125 -1.375l-2.75 0l0 9.859375l2.75 0zm18.418762 1.4062195l-2.796875 -10.2187195l-2.78125 10.2187195l-1.71875 0l-3.609375 -12.6718445l1.75 0l2.8125 10.5625l2.90625 -10.5625l1.3125 0l2.90625 10.5625l2.796875 -10.5625l1.734375 0l-3.609375 12.6718445l-1.703125 0zm15.770325 0l0 -5.8124695l-7.40625 0l0 5.8124695l-1.578125 0l0 -12.6718445l1.578125 0l0 5.453125l7.40625 0l0 -5.453125l1.578125 0l0 12.6718445l-1.578125 0z" fill-rule="nonzero"></path><path fill="#000000" fill-opacity="0.0" d="m214.71129 376.7638l186.96062 0l0 28.850372l-186.96062 0z" fill-rule="nonzero"></path><path stroke="#6aa84f" stroke-width="2.0" stroke-linejoin="round" stroke-linecap="butt" d="m214.71129 376.7638l186.96062 0l0 28.850372l-186.96062 0z" fill-rule="nonzero"></path><path fill="#6aa84f" d="m268.10052 398.10898l0 -12.671875l5.09375 0q1.796875 0 2.875 1.09375q1.09375 1.078125 1.09375 2.71875q0 1.671875 -1.109375 2.75q-1.09375 1.078125 -2.859375 1.078125l-3.515625 0l0 5.03125l-1.578125 0zm4.90625 -6.4375q1.140625 0 1.828125 -0.65625q0.6875 -0.671875 0.6875 -1.765625q0 -1.078125 -0.6875 -1.734375q-0.6875 -0.671875 -1.828125 -0.671875l-3.328125 0l0 4.828125l3.328125 0zm15.091827 6.4375l-1.125 -2.8125l-6.3125 0l-1.125 2.8125l-1.796875 0l5.09375 -12.671875l1.953125 0l5.109375 12.671875l-1.796875 0zm-4.28125 -11.03125l-2.703125 6.8125l5.390625 0l-2.6875 -6.8125zm14.838318 11.03125l-3.21875 -5.03125l-2.53125 0l0 5.03125l-1.578125 0l0 -12.671875l5.09375 0q1.78125 0 2.875 1.0625q1.09375 1.0625 1.09375 2.75q0 1.59375 -0.921875 2.578125q-0.921875 0.984375 -2.359375 1.109375l3.40625 5.171875l-1.859375 0zm-2.421875 -6.421875q1.140625 0 1.828125 -0.671875q0.6875 -0.671875 0.6875 -1.765625q0 -1.078125 -0.6875 -1.734375q-0.6875 -0.671875 -1.828125 -0.671875l-3.328125 0l0 4.84375l3.328125 0zm12.218018 6.65625q-2.796875 0 -4.546875 -1.859375q-1.75 -1.875 -1.75 -4.703125q0 -2.84375 1.75 -4.6875q1.765625 -1.859375 4.546875 -1.859375q2.78125 0 4.53125 1.859375q1.75 1.859375 1.75 4.6875q0 2.84375 -1.75 4.671875l1.21875 1.296875l-1.109375 0.953125l-1.234375 -1.3125q-1.5 0.953125 -3.40625 0.953125zm0 -1.40625q1.34375 0 2.40625 -0.65625l-1.8125 -1.953125l1.109375 -0.9375l1.78125 1.9375q1.15625 -1.4375 1.15625 -3.546875q0 -2.28125 -1.296875 -3.703125q-1.28125 -1.4375 -3.34375 -1.4375q-2.0625 0 -3.359375 1.40625q-1.296875 1.40625 -1.296875 3.734375q0 2.28125 1.28125 3.71875q1.28125 1.4375 3.375 1.4375zm13.662659 1.40625q-2.453125 0 -3.8125 -1.34375q-1.359375 -1.34375 -1.359375 -3.8125l0 -7.75l1.578125 0l0 7.71875q0 1.734375 0.90625 2.765625q0.921875 1.015625 2.6875 1.015625q1.765625 0 2.671875 -1.015625q0.90625 -1.03125 0.90625 -2.765625l0 -7.71875l1.578125 0l0 7.734375q0 2.46875 -1.328125 3.828125q-1.328125 1.34375 -3.828125 1.34375zm7.8874817 -0.234375l0 -12.671875l8.296875 0l0 1.40625l-6.71875 0l0 4.078125l6.59375 0l0 1.40625l-6.59375 0l0 4.375l6.71875 0l0 1.40625l-8.296875 0zm13.7404175 0l0 -11.265625l-4.0 0l0 -1.40625l9.609375 0l0 1.40625l-4.03125 0l0 11.265625l-1.578125 0z" fill-rule="nonzero"></path><path fill="#000000" fill-opacity="0.0" d="m417.6719 376.7638l186.96066 0l0 28.850372l-186.96066 0z" fill-rule="nonzero"></path><path stroke="#6aa84f" stroke-width="2.0" stroke-linejoin="round" stroke-linecap="butt" d="m417.6719 376.7638l186.96066 0l0 28.850372l-186.96066 0z" fill-rule="nonzero"></path><path fill="#6aa84f" d="m491.03036 398.34335q-2.046875 0 -3.3125 -1.46875l0.828125 -1.203125q1.0625 1.265625 2.390625 1.265625q1.171875 0 1.859375 -0.734375q0.6875 -0.734375 0.6875 -1.9375l0 -8.828125l1.578125 0l0 8.859375q0 1.90625 -1.09375 2.984375q-1.078125 1.0625 -2.9375 1.0625zm10.93985 0q-3.0625 0 -4.875 -2.015625l0.9375 -1.203125q0.78125 0.875 1.8125 1.34375q1.046875 0.46875 2.171875 0.46875q1.375 0 2.171875 -0.609375q0.8125 -0.609375 0.8125 -1.578125q0 -1.5 -2.359375 -2.15625q-2.78125 -0.734375 -3.5625 -1.171875q-0.765625 -0.4375 -1.171875 -1.09375q-0.40625 -0.65625 -0.40625 -1.5625q0 -1.53125 1.21875 -2.515625q1.234375 -1.0 3.125 -1.0q2.859375 0 4.5 1.765625l-0.9375 1.15625q-1.375 -1.515625 -3.671875 -1.515625q-1.140625 0 -1.875 0.546875q-0.734375 0.546875 -0.734375 1.46875q0 0.65625 0.609375 1.125q0.609375 0.46875 1.765625 0.75q2.703125 0.734375 3.484375 1.21875q0.796875 0.46875 1.21875 1.171875q0.4375 0.6875 0.4375 1.671875q0 1.75 -1.28125 2.75q-1.265625 0.984375 -3.390625 0.984375zm12.604431 0q-2.7968445 0 -4.5468445 -1.859375q-1.75 -1.875 -1.75 -4.703125q0 -2.84375 1.75 -4.6875q1.765625 -1.859375 4.5468445 -1.859375q2.78125 0 4.53125 1.859375q1.75 1.859375 1.75 4.6875q0 2.84375 -1.765625 4.703125q-1.75 1.859375 -4.515625 1.859375zm0 -1.40625q2.0625 0 3.34375 -1.453125q1.296875 -1.453125 1.296875 -3.703125q0 -2.28125 -1.296875 -3.703125q-1.28125 -1.4375 -3.34375 -1.4375q-2.0625 0 -3.3593445 1.40625q-1.296875 1.40625 -1.296875 3.734375q0 2.28125 1.28125 3.71875q1.2812195 1.4375 3.3749695 1.4375zm17.459534 1.171875l-7.390625 -10.109375l0 10.109375l-1.578125 0l0 -12.671875l1.609375 0l7.296875 9.890625l0 -9.890625l1.578125 0l0 12.671875l-1.515625 0z" fill-rule="nonzero"></path><path fill="#000000" fill-opacity="0.0" d="m620.63257 376.7638l186.96063 0l0 28.850372l-186.96063 0z" fill-rule="nonzero"></path><path stroke="#6aa84f" stroke-width="2.0" stroke-linejoin="round" stroke-linecap="butt" d="m620.63257 376.7638l186.96063 0l0 28.850372l-186.96063 0z" fill-rule="nonzero"></path><path fill="#6aa84f" d="m703.68726 398.34335q-2.796875 0 -4.65625 -1.84375q-1.859375 -1.84375 -1.859375 -4.71875q0 -2.875 1.859375 -4.703125q1.859375 -1.84375 4.65625 -1.84375q3.015625 0 4.8125 2.5l-1.328125 0.734375q-0.5625 -0.796875 -1.484375 -1.3125q-0.921875 -0.515625 -2.0 -0.515625q-2.109375 0 -3.5 1.46875q-1.375 1.453125 -1.375 3.671875q0 2.25 1.375 3.703125q1.375 1.453125 3.5 1.453125q1.078125 0 2.0 -0.515625q0.921875 -0.515625 1.484375 -1.328125l1.34375 0.734375q-1.84375 2.515625 -4.828125 2.515625zm10.721008 0q-3.0625 0 -4.875 -2.015625l0.9375 -1.203125q0.78125 0.875 1.8125 1.34375q1.046875 0.46875 2.171875 0.46875q1.375 0 2.171875 -0.609375q0.8125 -0.609375 0.8125 -1.578125q0 -1.5 -2.359375 -2.15625q-2.78125 -0.734375 -3.5625 -1.171875q-0.765625 -0.4375 -1.171875 -1.09375q-0.40625 -0.65625 -0.40625 -1.5625q0 -1.53125 1.21875 -2.515625q1.234375 -1.0 3.125 -1.0q2.859375 0 4.5 1.765625l-0.9375 1.15625q-1.375 -1.515625 -3.671875 -1.515625q-1.140625 0 -1.875 0.546875q-0.734375 0.546875 -0.734375 1.46875q0 0.65625 0.609375 1.125q0.609375 0.46875 1.765625 0.75q2.703125 0.734375 3.484375 1.21875q0.796875 0.46875 1.21875 1.171875q0.4375 0.6875 0.4375 1.671875q0 1.75 -1.28125 2.75q-1.265625 0.984375 -3.390625 0.984375zm10.604431 -0.234375l-5.09375 -12.671875l1.796875 0l4.28125 10.9375l4.28125 -10.9375l1.796875 0l-5.109375 12.671875l-1.953125 0z" fill-rule="nonzero"></path><path fill="#000000" fill-opacity="0.0" d="m11.750656 198.66142l186.96063 0l0 28.850388l-186.96063 0z" fill-rule="nonzero"></path><path stroke="#4a86e8" stroke-width="2.0" stroke-linejoin="round" stroke-linecap="butt" d="m11.750656 198.66142l186.96063 0l0 28.850388l-186.96063 0z" fill-rule="nonzero"></path><path fill="#4a86e8" d="m66.50179 220.0066l0 -12.671875l4.328125 0q2.890625 0 4.6875 1.796875q1.8125 1.796875 1.8125 4.546875q0 2.78125 -1.8125 4.5625q-1.8125 1.765625 -4.6875 1.765625l-4.328125 0zm4.328125 -1.40625q2.171875 0 3.515625 -1.359375q1.34375 -1.359375 1.34375 -3.5625q0 -2.203125 -1.328125 -3.5625q-1.328125 -1.375 -3.53125 -1.375l-2.75 0l0 9.859375l2.75 0zm17.778122 1.40625l-1.125 -2.8125l-6.3125 0l-1.125 2.8125l-1.796875 0l5.09375 -12.671875l1.953125 0l5.109375 12.671875l-1.796875 0zm-4.28125 -11.03125l-2.703125 6.8125l5.390625 0l-2.6875 -6.8125zm10.635193 11.03125l0 -11.265625l-4.0 0l0 -1.40625l9.609375 0l0 1.40625l-4.03125 0l0 11.265625l-1.578125 0zm16.555939 0l-1.125 -2.8125l-6.3125 0l-1.125 2.8125l-1.796875 0l5.09375 -12.671875l1.953125 0l5.109375 12.671875l-1.796875 0zm-4.28125 -11.03125l-2.703125 6.8125l5.390625 0l-2.6875 -6.8125zm11.619568 11.265625q-3.0625 0 -4.875 -2.015625l0.9375 -1.203125q0.78125 0.875 1.8125 1.34375q1.046875 0.46875 2.171875 0.46875q1.375 0 2.171875 -0.609375q0.8125 -0.609375 0.8125 -1.578125q0 -1.5 -2.359375 -2.15625q-2.78125 -0.734375 -3.5625 -1.171875q-0.765625 -0.4375 -1.171875 -1.09375q-0.40625 -0.65625 -0.40625 -1.5625q0 -1.53125 1.21875 -2.515625q1.234375 -1.0 3.125 -1.0q2.859375 0 4.5 1.765625l-0.9375 1.15625q-1.375 -1.515625 -3.671875 -1.515625q-1.140625 0 -1.875 0.546875q-0.734375 0.546875 -0.734375 1.46875q0 0.65625 0.609375 1.125q0.609375 0.46875 1.765625 0.75q2.703125 0.734375 3.484375 1.21875q0.796875 0.46875 1.21875 1.171875q0.4375 0.6875 0.4375 1.671875q0 1.75 -1.28125 2.75q-1.265625 0.984375 -3.390625 0.984375zm6.8231964 -0.234375l0 -12.671875l8.296883 0l0 1.40625l-6.7187576 0l0 4.078125l6.5937576 0l0 1.40625l-6.5937576 0l0 4.375l6.7187576 0l0 1.40625l-8.296883 0zm13.74041 0l0 -11.265625l-4.0 0l0 -1.40625l9.609375 0l0 1.40625l-4.03125 0l0 11.265625l-1.578125 0z" fill-rule="nonzero"></path><path fill="#000000" fill-opacity="0.0" d="m214.71129 198.66142l186.96062 0l0 28.850388l-186.96062 0z" fill-rule="nonzero"></path><path stroke="#4a86e8" stroke-width="2.0" stroke-linejoin="round" stroke-linecap="butt" d="m214.71129 198.66142l186.96062 0l0 28.850388l-186.96062 0z" fill-rule="nonzero"></path><path fill="#4a86e8" d="m250.10655 220.0066l0 -12.671875l4.328125 0q2.8906403 0 4.6875153 1.796875q1.8125 1.796875 1.8125 4.546875q0 2.78125 -1.8125 4.5625q-1.8125 1.765625 -4.6875153 1.765625l-4.328125 0zm4.328125 -1.40625q2.1718903 0 3.5156403 -1.359375q1.34375 -1.359375 1.34375 -3.5625q0 -2.203125 -1.328125 -3.5625q-1.328125 -1.375 -3.5312653 -1.375l-2.75 0l0 9.859375l2.75 0zm17.778122 1.40625l-1.125 -2.8125l-6.3125 0l-1.125 2.8125l-1.796875 0l5.09375 -12.671875l1.953125 0l5.109375 12.671875l-1.796875 0zm-4.28125 -11.03125l-2.703125 6.8125l5.390625 0l-2.6875 -6.8125zm10.635193 11.03125l0 -11.265625l-4.0 0l0 -1.40625l9.609375 0l0 1.40625l-4.03125 0l0 11.265625l-1.578125 0zm16.555939 0l-1.125 -2.8125l-6.3125 0l-1.125 2.8125l-1.796875 0l5.09375 -12.671875l1.953125 0l5.109375 12.671875l-1.796875 0zm-4.28125 -11.03125l-2.703125 6.8125l5.390625 0l-2.6875 -6.8125zm11.619568 11.265625q-3.0625 0 -4.875 -2.015625l0.9375 -1.203125q0.78125 0.875 1.8125 1.34375q1.046875 0.46875 2.171875 0.46875q1.375 0 2.171875 -0.609375q0.8125 -0.609375 0.8125 -1.578125q0 -1.5 -2.359375 -2.15625q-2.78125 -0.734375 -3.5625 -1.171875q-0.765625 -0.4375 -1.171875 -1.09375q-0.40625 -0.65625 -0.40625 -1.5625q0 -1.53125 1.21875 -2.515625q1.234375 -1.0 3.125 -1.0q2.859375 0 4.5 1.765625l-0.9375 1.15625q-1.375 -1.515625 -3.671875 -1.515625q-1.140625 0 -1.875 0.546875q-0.734375 0.546875 -0.734375 1.46875q0 0.65625 0.609375 1.125q0.609375 0.46875 1.765625 0.75q2.703125 0.734375 3.484375 1.21875q0.796875 0.46875 1.21875 1.171875q0.4375 0.6875 0.4375 1.671875q0 1.75 -1.28125 2.75q-1.265625 0.984375 -3.390625 0.984375zm9.948212 -0.234375l0 -11.265625l-4.0 0l0 -1.40625l9.609375 0l0 1.40625l-4.03125 0l0 11.265625l-1.578125 0zm14.837189 0l-3.21875 -5.03125l-2.53125 0l0 5.03125l-1.578125 0l0 -12.671875l5.09375 0q1.78125 0 2.875 1.0625q1.09375 1.0625 1.09375 2.75q0 1.59375 -0.921875 2.578125q-0.921875 0.984375 -2.359375 1.109375l3.40625 5.171875l-1.859375 0zm-2.421875 -6.421875q1.140625 0 1.828125 -0.671875q0.6875 -0.671875 0.6875 -1.765625q0 -1.078125 -0.6875 -1.734375q-0.6875 -0.671875 -1.828125 -0.671875l-3.328125 0l0 4.84375l3.328125 0zm6.436737 6.421875l0 -12.671875l8.296875 0l0 1.40625l-6.71875 0l0 4.078125l6.59375 0l0 1.40625l-6.59375 0l0 4.375l6.71875 0l0 1.40625l-8.296875 0zm19.662262 0l-1.125 -2.8125l-6.3125 0l-1.1249695 2.8125l-1.796875 0l5.0937195 -12.671875l1.953125 0l5.109375 12.671875l-1.796875 0zm-4.28125 -11.03125l-2.703125 6.8125l5.390625 0l-2.6875 -6.8125zm18.338318 11.03125l0 -10.4375l-4.3125 10.4375l-0.640625 0l-4.296875 -10.4375l0 10.4375l-1.578125 0l0 -12.671875l2.265625 0l3.921875 9.53125l3.953125 -9.53125l2.265625 0l0 12.671875l-1.578125 0z" fill-rule="nonzero"></path><path fill="#000000" fill-opacity="0.0" d="m417.6719 198.66142l186.96066 0l0 28.850388l-186.96066 0z" fill-rule="nonzero"></path><path stroke="#4a86e8" stroke-width="2.0" stroke-linejoin="round" stroke-linecap="butt" d="m417.6719 198.66142l186.96066 0l0 28.850388l-186.96066 0z" fill-rule="nonzero"></path><path fill="#4a86e8" d="m468.81308 220.0066l0 -12.671875l8.296875 0l0 1.40625l-6.71875 0l0 4.078125l6.59375 0l0 1.40625l-6.59375 0l0 5.78125l-1.578125 0zm10.260925 0l0 -12.671875l1.578125 0l0 11.265625l5.890625 0l0 1.40625l-7.46875 0zm9.514709 0l0 -12.671875l1.578125 0l0 12.671875l-1.578125 0zm13.427582 0l-7.390625 -10.109375l0 10.109375l-1.578125 0l0 -12.671875l1.609375 0l7.296875 9.890625l0 -9.890625l1.578125 0l0 12.671875l-1.515625 0zm11.896118 0l-4.8124695 -5.703125l-1.265625 1.453125l0 4.25l-1.578125 0l0 -12.671875l1.578125 0l0 6.546875l5.5937195 -6.546875l1.984375 0l-5.2812195 6.015625l5.7343445 6.65625l-1.953125 0zm14.369507 0.234375q-2.796875 0 -4.65625 -1.84375q-1.859375 -1.84375 -1.859375 -4.71875q0 -2.875 1.859375 -4.703125q1.859375 -1.84375 4.65625 -1.84375q3.015625 0 4.8125 2.5l-1.328125 0.734375q-0.5625 -0.796875 -1.484375 -1.3125q-0.921875 -0.515625 -2.0 -0.515625q-2.109375 0 -3.5 1.46875q-1.375 1.453125 -1.375 3.671875q0 2.25 1.375 3.703125q1.375 1.453125 3.5 1.453125q1.078125 0 2.0 -0.515625q0.921875 -0.515625 1.484375 -1.328125l1.34375 0.734375q-1.84375 2.515625 -4.828125 2.515625zm6.6116333 -0.234375l0 -12.671875l8.296875 0l0 1.40625l-6.71875 0l0 4.078125l6.59375 0l0 1.40625l-6.59375 0l0 4.375l6.71875 0l0 1.40625l-8.296875 0zm10.615356 0l0 -12.671875l5.09375 0q1.796875 0 2.875 1.09375q1.09375 1.078125 1.09375 2.71875q0 1.671875 -1.109375 2.75q-1.09375 1.078125 -2.859375 1.078125l-3.515625 0l0 5.03125l-1.578125 0zm4.90625 -6.4375q1.140625 0 1.828125 -0.65625q0.6875 -0.671875 0.6875 -1.765625q0 -1.078125 -0.6875 -1.734375q-0.6875 -0.671875 -1.828125 -0.671875l-3.328125 0l0 4.828125l3.328125 0z" fill-rule="nonzero"></path><path fill="#000000" fill-opacity="0.0" d="m620.63257 198.66142l186.96063 0l0 28.850388l-186.96063 0z" fill-rule="nonzero"></path><path stroke="#4a86e8" stroke-width="2.0" stroke-linejoin="round" stroke-linecap="butt" d="m620.63257 198.66142l186.96063 0l0 28.850388l-186.96063 0z" fill-rule="nonzero"></path><path fill="#4a86e8" d="m676.559 220.0066l0 -12.671875l8.296875 0l0 1.40625l-6.71875 0l0 4.078125l6.59375 0l0 1.40625l-6.59375 0l0 5.78125l-1.578125 0zm10.260925 0l0 -12.671875l1.578125 0l0 11.265625l5.890625 0l0 1.40625l-7.46875 0zm9.514709 0l0 -12.671875l1.578125 0l0 12.671875l-1.578125 0zm13.427612 0l-7.390625 -10.109375l0 10.109375l-1.578125 0l0 -12.671875l1.609375 0l7.296875 9.890625l0 -9.890625l1.578125 0l0 12.671875l-1.515625 0zm11.896118 0l-4.8125 -5.703125l-1.265625 1.453125l0 4.25l-1.578125 0l0 -12.671875l1.578125 0l0 6.546875l5.59375 -6.546875l1.984375 0l-5.28125 6.015625l5.734375 6.65625l-1.953125 0zm19.19757 0l0 -10.4375l-4.3125 10.4375l-0.640625 0l-4.296875 -10.4375l0 10.4375l-1.578125 0l0 -12.671875l2.265625 0l3.921875 9.53125l3.953125 -9.53125l2.265625 0l0 12.671875l-1.578125 0zm4.2648315 0l0 -12.671875l1.578125 0l0 11.265625l5.890625 0l0 1.40625l-7.46875 0z" fill-rule="nonzero"></path><path fill="#000000" fill-opacity="0.0" d="m518.08136 491.58267l86.55121 0l0 28.850372l-86.55121 0z" fill-rule="nonzero"></path><path stroke="#6aa84f" stroke-width="2.0" stroke-linejoin="round" stroke-linecap="butt" d="m518.08136 491.58267l86.55121 0l0 28.850372l-86.55121 0z" fill-rule="nonzero"></path><path fill="#6aa84f" d="m539.08813 512.92786l-3.21875 -5.0312195l-2.53125 0l0 5.0312195l-1.578125 0l0 -12.6718445l5.09375 0q1.78125 0 2.875 1.0625q1.09375 1.0625 1.09375 2.75q0 1.59375 -0.921875 2.578125q-0.921875 0.984375 -2.359375 1.109375l3.40625 5.1718445l-1.859375 0zm-2.421875 -6.4218445q1.140625 0 1.828125 -0.671875q0.6875 -0.671875 0.6875 -1.765625q0 -1.078125 -0.6875 -1.734375q-0.6875 -0.671875 -1.828125 -0.671875l-3.328125 0l0 4.84375l3.328125 0zm6.4367676 6.4218445l0 -12.6718445l4.328125 0q2.890625 0 4.6875 1.796875q1.8125 1.796875 1.8125 4.546875q0 2.78125 -1.8125 4.5625q-1.8125 1.7655945 -4.6875 1.7655945l-4.328125 0zm4.328125 -1.4062195q2.171875 0 3.515625 -1.359375q1.34375 -1.359375 1.34375 -3.5625q0 -2.203125 -1.328125 -3.5625q-1.328125 -1.375 -3.53125 -1.375l-2.75 0l0 9.859375l2.75 0zm8.731201 1.4062195l0 -12.6718445l5.640625 0q1.609375 0 2.578125 0.890625q0.96875 0.875 0.96875 2.34375q0 1.109375 -0.625 1.890625q-0.609375 0.78125 -1.59375 1.015625q1.015625 0.140625 1.734375 1.0625q0.734375 0.90625 0.734375 2.046875q0 1.5625 -0.984375 2.4999695q-0.96875 0.921875 -2.671875 0.921875l-5.78125 0zm5.375 -7.1874695q1.078125 0 1.625 -0.578125q0.5625 -0.578125 0.5625 -1.453125q0 -0.84375 -0.5625 -1.4375q-0.546875 -0.609375 -1.625 -0.609375l-3.796875 0l0 4.078125l3.796875 0zm0.078125 5.78125q1.125 0 1.734375 -0.578125q0.625 -0.578125 0.625 -1.609375q0 -0.96875 -0.65625 -1.578125q-0.640625 -0.609375 -1.703125 -0.609375l-3.875 0l0 4.375l3.875 0zm17.109802 1.4062195l0 -10.4374695l-4.3125 10.4374695l-0.640625 0l-4.296875 -10.4374695l0 10.4374695l-1.578125 0l0 -12.6718445l2.265625 0l3.921875 9.53125l3.953125 -9.53125l2.265625 0l0 12.6718445l-1.578125 0zm8.3741455 0.234375q-3.0625 0 -4.875 -2.0155945l0.9375 -1.203125q0.78125 0.875 1.8125 1.34375q1.046875 0.46875 2.171875 0.46875q1.375 0 2.171875 -0.609375q0.8125 -0.609375 0.8125 -1.578125q0 -1.5 -2.359375 -2.15625q-2.78125 -0.734375 -3.5625 -1.171875q-0.765625 -0.4375 -1.171875 -1.09375q-0.40625 -0.65625 -0.40625 -1.5625q0 -1.53125 1.21875 -2.515625q1.234375 -1.0 3.125 -1.0q2.859375 0 4.5 1.765625l-0.9375 1.15625q-1.375 -1.515625 -3.671875 -1.515625q-1.140625 0 -1.875 0.546875q-0.734375 0.546875 -0.734375 1.46875q0 0.65625 0.609375 1.125q0.609375 0.46875 1.765625 0.75q2.703125 0.734375 3.484375 1.21875q0.796875 0.46875 1.21875 1.171875q0.4375 0.6875 0.4375 1.671875q0 1.75 -1.28125 2.7499695q-1.265625 0.984375 -3.390625 0.984375z" fill-rule="nonzero"></path><path fill="#000000" fill-opacity="0.0" d="m620.63257 491.58267l86.55115 0l0 28.850372l-86.55115 0z" fill-rule="nonzero"></path><path stroke="#6aa84f" stroke-width="2.0" stroke-linejoin="round" stroke-linecap="butt" d="m620.63257 491.58267l86.55115 0l0 28.850372l-86.55115 0z" fill-rule="nonzero"></path><path fill="#6aa84f" d="m641.3819 512.92786l0 -12.6718445l1.578125 0l0 11.265625l5.890625 0l0 1.4062195l-7.46875 0zm15.295959 0.234375q-2.796875 0 -4.546875 -1.8593445q-1.75 -1.875 -1.75 -4.703125q0 -2.84375 1.75 -4.6875q1.765625 -1.859375 4.546875 -1.859375q2.78125 0 4.53125 1.859375q1.75 1.859375 1.75 4.6875q0 2.84375 -1.765625 4.703125q-1.75 1.8593445 -4.515625 1.8593445zm0 -1.4062195q2.0625 0 3.34375 -1.453125q1.296875 -1.453125 1.296875 -3.703125q0 -2.28125 -1.296875 -3.703125q-1.28125 -1.4375 -3.34375 -1.4375q-2.0625 0 -3.359375 1.40625q-1.296875 1.40625 -1.296875 3.734375q0 2.28125 1.28125 3.71875q1.28125 1.4375 3.375 1.4375zm14.490784 1.4218445q-2.796875 0 -4.65625 -1.8749695q-1.859375 -1.875 -1.859375 -4.703125q0 -2.875 1.875 -4.703125q1.875 -1.84375 4.640625 -1.84375q2.984375 0 4.921875 2.375l-1.25 0.765625q-0.609375 -0.765625 -1.578125 -1.25q-0.953125 -0.484375 -2.09375 -0.484375q-2.109375 0 -3.5 1.46875q-1.375 1.453125 -1.375 3.671875q0 2.25 1.390625 3.71875q1.390625 1.453125 3.484375 1.453125q0.953125 0 1.859375 -0.375q0.921875 -0.375 1.546875 -1.0l0 -2.578125l-4.359375 0l0 -1.40625l5.9375 0l0 4.578125q-1.984375 2.1874695 -4.984375 2.1874695zm11.411255 -0.015625q-3.0625 0 -4.875 -2.0155945l0.9375 -1.203125q0.78125 0.875 1.8125 1.34375q1.046875 0.46875 2.171875 0.46875q1.375 0 2.171875 -0.609375q0.8125 -0.609375 0.8125 -1.578125q0 -1.5 -2.359375 -2.15625q-2.78125 -0.734375 -3.5625 -1.171875q-0.765625 -0.4375 -1.171875 -1.09375q-0.40625 -0.65625 -0.40625 -1.5625q0 -1.53125 1.21875 -2.515625q1.234375 -1.0 3.125 -1.0q2.859375 0 4.5 1.765625l-0.9375 1.15625q-1.375 -1.515625 -3.671875 -1.515625q-1.140625 0 -1.875 0.546875q-0.734375 0.546875 -0.734375 1.46875q0 0.65625 0.609375 1.125q0.609375 0.46875 1.765625 0.75q2.703125 0.734375 3.484375 1.21875q0.796875 0.46875 1.21875 1.171875q0.4375 0.6875 0.4375 1.671875q0 1.75 -1.28125 2.7499695q-1.265625 0.984375 -3.390625 0.984375z" fill-rule="nonzero"></path><path fill="#000000" fill-opacity="0.0" d="m721.042 491.58267l86.55121 0l0 28.850372l-86.55121 0z" fill-rule="nonzero"></path><path stroke="#6aa84f" stroke-width="2.0" stroke-linejoin="round" stroke-linecap="butt" d="m721.042 491.58267l86.55121 0l0 28.850372l-86.55121 0z" fill-rule="nonzero"></path><path fill="#6aa84f" d="m751.1195 512.92786l0 -12.6718445l1.578125 0l0 12.6718445l-1.578125 0zm10.240051 0.234375q-2.796875 0 -4.546875 -1.8593445q-1.75 -1.875 -1.75 -4.703125q0 -2.84375 1.75 -4.6875q1.765625 -1.859375 4.546875 -1.859375q2.78125 0 4.53125 1.859375q1.75 1.859375 1.75 4.6875q0 2.84375 -1.765625 4.703125q-1.75 1.8593445 -4.515625 1.8593445zm0 -1.4062195q2.0625 0 3.34375 -1.453125q1.296875 -1.453125 1.296875 -3.703125q0 -2.28125 -1.296875 -3.703125q-1.28125 -1.4375 -3.34375 -1.4375q-2.0625 0 -3.359375 1.40625q-1.296875 1.40625 -1.296875 3.734375q0 2.28125 1.28125 3.71875q1.28125 1.4375 3.375 1.4375zm11.615784 1.1718445l0 -11.2655945l-4.0 0l0 -1.40625l9.609375 0l0 1.40625l-4.03125 0l0 11.2655945l-1.578125 0z" fill-rule="nonzero"></path></g></svg>

